#N canvas 214 106 1622 898 10;
#X obj 67 461 qlist;
#X msg 155 240 rewind;
#X msg 166 265 next;
#X msg 144 216 bang;
#X text 229 330 set relative tempo;
#X text 215 239 go to beginning (and stop);
#X text 215 266 single-step forward;
#X text 209 105 read a file;
#X msg 85 154 clear;
#X text 129 155 empty the qlist;
#X msg 75 132 print;
#X text 119 130 print contents to Pd window;
#X obj 21 20 tgl 15 0 empty empty empty 17 7 0 10 -262144 -1 -1 0 1
;
#X msg 21 44 \; pd dsp \$1;
#X msg 193 356 tempo \$1;
#X floatatom 193 330 5 0 0 0 - - -;
#X text 181 216 Start and play through sequence;
#X obj 537 303 sig~ 1;
#X obj 653 346 osc~;
#X obj 653 369 *~ 24;
#X obj 653 394 *~;
#X obj 654 420 +~ 1;
#X obj 626 455 /~;
#X obj 626 502 -~ 0.5;
#X obj 571 638 bp~ 1 34;
#X obj 649 638 bp~ 1 34;
#X obj 725 637 bp~ 1 34;
#X obj 638 710 clip~ -1 1;
#X obj 621 871 dac~;
#X obj 781 486 unpack f f f;
#X msg 812 189 i;
#X msg 855 190 I;
#X msg 895 190 E;
#X msg 934 192 ae;
#X msg 972 193 ^;
#X msg 1017 192 u;
#X msg 1057 193 U;
#X msg 1099 193 &;
#X msg 1151 193 A;
#X obj 908 271 route i I E ae ^ u U & A;
#X msg 920 323 280 2250 2900;
#X msg 924 358 480 1900 2550;
#X msg 933 399 550 1770 2490;
#X msg 939 440 690 1660 2490;
#X msg 956 476 640 1190 2390;
#X msg 965 518 310 870 2250;
#X msg 970 556 450 1030 2380;
#X msg 978 595 500 1500 2500;
#X msg 978 640 710 1100 2640;
#X floatatom 665 213 5 0 0 0 - - -;
#X obj 666 175 loadbang;
#X text 811 170 Meet;
#X text 854 171 Ship;
#X text 896 171 Pet;
#X text 935 175 Cat;
#X text 970 174 Love;
#X text 1015 173 Root;
#X text 1057 174 Hook;
#X text 1098 175 About;
#X text 1149 174 Father;
#X obj 631 817 *~;
#X obj 729 711 vsl 15 128 0 1 0 0 empty empty empty 0 -9 0 10 -262144
-1 -1 0 1;
#X floatatom 825 82 5 0 0 0 - - -;
#X obj 889 123 select 1 2 3 4 5 6 7 8 9, f 43;
#X obj 825 49 r p1;
#X floatatom 702 279 5 0 0 0 - - -;
#X obj 652 312 +;
#X text 738 280 Volatility;
#X text 664 152 Price;
#X obj 630 151 r p2;
#X obj 701 253 r p3;
#X text 866 50 Trading Volume;
#X msg 69 105 read Script.txt;
#X connect 1 0 0 0;
#X connect 2 0 0 0;
#X connect 3 0 0 0;
#X connect 8 0 0 0;
#X connect 10 0 0 0;
#X connect 12 0 13 0;
#X connect 14 0 0 0;
#X connect 15 0 14 0;
#X connect 17 0 22 0;
#X connect 18 0 19 0;
#X connect 19 0 20 0;
#X connect 19 0 20 1;
#X connect 20 0 21 0;
#X connect 21 0 22 1;
#X connect 22 0 23 0;
#X connect 23 0 24 0;
#X connect 23 0 25 0;
#X connect 23 0 26 0;
#X connect 24 0 27 0;
#X connect 25 0 27 0;
#X connect 26 0 27 0;
#X connect 27 0 60 0;
#X connect 29 0 24 1;
#X connect 29 1 25 1;
#X connect 29 2 26 1;
#X connect 30 0 39 0;
#X connect 31 0 39 0;
#X connect 32 0 39 0;
#X connect 33 0 39 0;
#X connect 34 0 39 0;
#X connect 35 0 39 0;
#X connect 36 0 39 0;
#X connect 37 0 39 0;
#X connect 38 0 39 0;
#X connect 39 0 40 0;
#X connect 39 1 41 0;
#X connect 39 2 42 0;
#X connect 39 3 43 0;
#X connect 39 4 44 0;
#X connect 39 5 45 0;
#X connect 39 6 46 0;
#X connect 39 7 47 0;
#X connect 39 8 48 0;
#X connect 40 0 29 0;
#X connect 41 0 29 0;
#X connect 42 0 29 0;
#X connect 43 0 29 0;
#X connect 44 0 29 0;
#X connect 45 0 29 0;
#X connect 46 0 29 0;
#X connect 47 0 29 0;
#X connect 48 0 29 0;
#X connect 49 0 66 0;
#X connect 50 0 49 0;
#X connect 60 0 28 0;
#X connect 60 0 28 1;
#X connect 61 0 60 1;
#X connect 62 0 63 0;
#X connect 63 0 30 0;
#X connect 63 1 32 0;
#X connect 63 2 35 0;
#X connect 63 3 38 0;
#X connect 64 0 62 0;
#X connect 65 0 66 1;
#X connect 66 0 18 0;
#X connect 69 0 49 0;
#X connect 70 0 65 0;
#X connect 72 0 0 0;
