#N canvas -8 -8 1920 997 12;
#X obj 13 11 tgl 40 0 empty empty Sound 0 20 0 16 -4032 -1 -1 1 1;
#X msg 13 55 \; pd dsp \$1;
#N canvas -8 -8 1920 997 Activision 0;
#X obj 201 337 phasor~;
#X obj 228 400 *~;
#X obj 212 161 soundfiler;
#X floatatom 212 187 15 0 1e+009 0 - - -;
#X obj 239 493 *~;
#X floatatom 254 472 5 0 1 0 - - -;
#X obj 204 216 expr 44100/$f1;
#X floatatom 288 255 5 0 0 0 - - -;
#X obj 319 318 * 1;
#X obj 330 288 bng 15 250 50 0 empty empty empty 17 7 0 10 -262144
-1 -1;
#X obj 368 244 inlet;
#X obj 386 453 inlet;
#X obj 239 518 outlet~;
#X floatatom 368 270 5 0 0 0 - - -;
#X text 387 435 volume;
#X obj 213 103 loadbang;
#N canvas 212 36 450 300 (subpatch) 0;
#X array soundData1 4.34381e+006 float 0;
#X coords 0 1 4.34381e+006 -1 300 100 1;
#X restore 670 227 graph;
#X msg 213 132 read -resize PublisherSongs/Activision.wav soundData1
;
#X obj 238 445 tabread4~ soundData1;
#X obj 446 633 r Min_Max_Sales_Activision;
#X obj 447 656 select -1 1;
#N canvas 212 36 450 300 (subpatch) 0;
#X array Activision_Min 289228 float 0;
#X coords 0 1 289227 -1 300 100 1 0 0;
#X restore 709 711 graph;
#X obj 713 665 soundfiler;
#X obj 714 607 loadbang;
#X obj 447 682 bng 15 250 50 0 empty empty empty 17 7 0 10 -262144
-1 -1;
#X obj 484 683 bng 15 250 50 0 empty empty empty 17 7 0 10 -262144
-1 -1;
#X obj 352 716 tabplay~ Activision_Min;
#X obj 447 813 dac~;
#X obj 528 716 tabplay~ Activision_Max;
#N canvas 212 36 450 300 (subpatch) 0;
#X array Activision_Max 144893 float 0;
#X coords 0 1 144892 -1 300 100 1 0 0;
#X restore 1162 708 graph;
#X obj 1166 662 soundfiler;
#X obj 1167 604 loadbang;
#X msg 714 635 read -resize MinSongs/Activision.wav Activision_Min
;
#X msg 1167 632 read -resize MaxSongs/Activision.wav Activision_Max
;
#X obj 352 794 *~;
#X obj 378 743 loadbang;
#X obj 528 795 *~;
#X obj 554 744 loadbang;
#X msg 378 767 0.5;
#X msg 554 768 0.5;
#X connect 0 0 1 0;
#X connect 1 0 18 0;
#X connect 2 0 3 0;
#X connect 3 0 1 1;
#X connect 3 0 6 0;
#X connect 4 0 12 0;
#X connect 5 0 4 1;
#X connect 6 0 7 0;
#X connect 7 0 8 0;
#X connect 8 0 0 0;
#X connect 9 0 8 0;
#X connect 10 0 13 0;
#X connect 11 0 5 0;
#X connect 13 0 9 0;
#X connect 13 0 8 1;
#X connect 15 0 17 0;
#X connect 17 0 2 0;
#X connect 18 0 4 0;
#X connect 19 0 20 0;
#X connect 20 0 24 0;
#X connect 20 1 25 0;
#X connect 23 0 32 0;
#X connect 24 0 26 0;
#X connect 25 0 28 0;
#X connect 26 0 34 0;
#X connect 28 0 36 0;
#X connect 31 0 33 0;
#X connect 32 0 22 0;
#X connect 33 0 30 0;
#X connect 34 0 27 0;
#X connect 35 0 38 0;
#X connect 36 0 27 1;
#X connect 37 0 39 0;
#X connect 38 0 34 1;
#X connect 39 0 36 1;
#X restore 138 378 pd Activision;
#X obj 141 349 hsl 128 15 0.5 1.5 0 0 empty empty playback_speed -2
-8 0 10 -262144 -1 -1 0 1;
#X obj 103 247 vsl 15 128 0 0.5 0 0 empty empty volume 0 -9 0 10 -262144
-1 -1 0 1;
#X obj 138 489 dac~;
#X obj 139 458 *~;
#X msg 184 432 0;
#X obj 182 408 loadbang;
#N canvas -1928 79 1920 997 Atari 0;
#X obj 216 338 phasor~;
#X obj 243 401 *~;
#X obj 212 161 soundfiler;
#X floatatom 212 187 15 0 1e+009 0 - - -;
#X obj 254 517 *~;
#X floatatom 269 496 5 0 1 0 - - -;
#X obj 204 216 expr 44100/$f1;
#X floatatom 288 255 5 0 0 0 - - -;
#X obj 319 318 * 1;
#X obj 330 288 bng 15 250 50 0 empty empty empty 17 7 0 10 -262144
-1 -1;
#X obj 253 552 outlet~;
#X floatatom 366 270 5 0 0 0 - - -;
#X obj 268 470 inlet;
#X obj 366 246 inlet;
#N canvas 212 36 450 300 (subpatch) 0;
#X array soundData2 4.2199e+006 float 0;
#X coords 0 1 4.2199e+006 -1 300 100 1;
#X restore 625 231 graph;
#X msg 213 133 read -resize PublisherSongs/Atari.wav soundData2;
#X obj 253 446 tabread4~ soundData2;
#X obj 213 103 loadbang;
#N canvas 212 36 450 300 (subpatch) 0;
#X array Atari_Min 134862 float 0;
#X coords 0 1 134861 -1 300 100 1 0 0;
#X restore 709 711 graph;
#X obj 713 665 soundfiler;
#X obj 714 607 loadbang;
#N canvas 212 36 450 300 (subpatch) 0;
#X array Atari_Max 57958 float 0;
#X coords 0 1 57957 -1 300 100 1 0 0;
#X restore 1162 708 graph;
#X obj 1166 662 soundfiler;
#X obj 1167 604 loadbang;
#X msg 714 635 read -resize MinSongs/Atari.wav Atari_Min;
#X msg 1167 632 read -resize MaxSongs/Atari.wav Atari_Max;
#X obj 447 656 select -1 1;
#X obj 447 682 bng 15 250 50 0 empty empty empty 17 7 0 10 -262144
-1 -1;
#X obj 484 683 bng 15 250 50 0 empty empty empty 17 7 0 10 -262144
-1 -1;
#X obj 447 813 dac~;
#X obj 352 794 *~;
#X obj 378 743 loadbang;
#X obj 528 795 *~;
#X obj 554 744 loadbang;
#X msg 378 767 0.5;
#X msg 554 768 0.5;
#X obj 446 633 r Min_Max_Sales_Atari;
#X obj 352 716 tabplay~ Atari_Min;
#X obj 528 716 tabplay~ Atari_Max;
#X connect 0 0 1 0;
#X connect 1 0 16 0;
#X connect 2 0 3 0;
#X connect 3 0 1 1;
#X connect 3 0 6 0;
#X connect 4 0 10 0;
#X connect 5 0 4 1;
#X connect 6 0 7 0;
#X connect 7 0 8 0;
#X connect 8 0 0 0;
#X connect 9 0 8 0;
#X connect 11 0 9 0;
#X connect 11 0 8 1;
#X connect 12 0 5 0;
#X connect 13 0 11 0;
#X connect 15 0 2 0;
#X connect 16 0 4 0;
#X connect 17 0 15 0;
#X connect 20 0 24 0;
#X connect 23 0 25 0;
#X connect 24 0 19 0;
#X connect 25 0 22 0;
#X connect 26 0 27 0;
#X connect 26 1 28 0;
#X connect 27 0 37 0;
#X connect 28 0 38 0;
#X connect 30 0 29 0;
#X connect 31 0 34 0;
#X connect 32 0 29 1;
#X connect 33 0 35 0;
#X connect 34 0 30 1;
#X connect 35 0 32 1;
#X connect 36 0 26 0;
#X connect 37 0 30 0;
#X connect 38 0 32 0;
#X restore 316 376 pd Atari;
#N canvas -1928 79 1920 997 Bethesda 0;
#X obj 216 338 phasor~;
#X obj 243 401 *~;
#X obj 212 161 soundfiler;
#X floatatom 212 187 15 0 1e+009 0 - - -;
#X obj 254 517 *~;
#X floatatom 269 496 5 0 1 0 - - -;
#X obj 204 216 expr 44100/$f1;
#X floatatom 288 255 5 0 0 0 - - -;
#X obj 319 318 * 1;
#X obj 330 288 bng 15 250 50 0 empty empty empty 17 7 0 10 -262144
-1 -1;
#X obj 213 103 loadbang;
#X obj 253 552 outlet~;
#X obj 362 258 inlet;
#X obj 271 470 inlet;
#X msg 213 133 read -resize PublisherSongs/Bethesda.wav soundData3
;
#X obj 253 446 tabread4~ soundData3;
#N canvas 212 36 450 300 (subpatch) 0;
#X array soundData3 1.03987e+007 float 0;
#X coords 0 1 1.03987e+007 -1 300 100 1 0 0;
#X restore 625 231 graph;
#X obj 485 573 select -1 1;
#N canvas 212 36 450 300 (subpatch) 0;
#X array Bethesda_Min 344399 float 0;
#X coords 0 1 344398 -1 300 100 1 0 0;
#X restore 747 628 graph;
#X obj 751 582 soundfiler;
#X obj 752 524 loadbang;
#X obj 485 599 bng 15 250 50 0 empty empty empty 17 7 0 10 -262144
-1 -1;
#X obj 522 600 bng 15 250 50 0 empty empty empty 17 7 0 10 -262144
-1 -1;
#X obj 485 730 dac~;
#N canvas 212 36 450 300 (subpatch) 0;
#X array Bethesda_Max 180559 float 0;
#X coords 0 1 180558 -1 300 100 1 0 0;
#X restore 1200 625 graph;
#X obj 1204 579 soundfiler;
#X obj 1205 521 loadbang;
#X obj 390 711 *~;
#X obj 416 660 loadbang;
#X obj 566 712 *~;
#X obj 592 661 loadbang;
#X obj 484 550 r Min_Max_Sales_Bethesda;
#X obj 390 633 tabplay~ Bethesda_Min;
#X obj 566 633 tabplay~ Bethesda_Max;
#X msg 1205 549 read -resize MaxSongs/Bethesda.wav Bethesda_Max;
#X msg 752 552 read -resize MinSongs/Bethesda.wav Bethesda_Min;
#X msg 416 684 0.5;
#X msg 592 685 0.5;
#X connect 0 0 1 0;
#X connect 1 0 15 0;
#X connect 2 0 3 0;
#X connect 3 0 1 1;
#X connect 3 0 6 0;
#X connect 4 0 11 0;
#X connect 5 0 4 1;
#X connect 6 0 7 0;
#X connect 7 0 8 0;
#X connect 8 0 0 0;
#X connect 9 0 8 0;
#X connect 10 0 14 0;
#X connect 12 0 9 0;
#X connect 12 0 8 1;
#X connect 13 0 5 0;
#X connect 14 0 2 0;
#X connect 15 0 4 0;
#X connect 17 0 21 0;
#X connect 17 1 22 0;
#X connect 20 0 35 0;
#X connect 21 0 32 0;
#X connect 22 0 33 0;
#X connect 26 0 34 0;
#X connect 27 0 23 0;
#X connect 28 0 36 0;
#X connect 29 0 23 1;
#X connect 30 0 37 0;
#X connect 31 0 17 0;
#X connect 32 0 27 0;
#X connect 33 0 29 0;
#X connect 34 0 25 0;
#X connect 35 0 19 0;
#X connect 36 0 27 1;
#X connect 37 0 29 1;
#X restore 516 373 pd Bethesda;
#N canvas -1928 79 1920 997 Capcom 0;
#X obj 216 338 phasor~;
#X obj 243 401 *~;
#X obj 212 161 soundfiler;
#X floatatom 212 187 15 0 1e+009 0 - - -;
#X obj 254 517 *~;
#X floatatom 269 496 5 0 1 0 - - -;
#X obj 204 216 expr 44100/$f1;
#X floatatom 288 255 5 0 0 0 - - -;
#X obj 319 318 * 1;
#X obj 330 288 bng 15 250 50 0 empty empty empty 17 7 0 10 -262144
-1 -1;
#X obj 213 103 loadbang;
#X obj 253 552 outlet~;
#X obj 268 470 inlet;
#N canvas 212 36 450 300 (subpatch) 0;
#X array soundData4 1.02902e+007 float 0;
#X coords 0 1 1.02902e+007 -1 300 100 1 0 0;
#X restore 625 232 graph;
#X msg 213 133 read -resize PublisherSongs/Capcom.wav soundData4;
#X floatatom 359 270 5 0 0 0 - - -;
#X obj 359 246 inlet;
#X obj 485 573 select -1 1;
#N canvas 212 36 450 300 (subpatch) 0;
#X array Capcom_Min 336597 float 0;
#X coords 0 1 336596 -1 300 100 1 0 0;
#X restore 747 628 graph;
#X obj 751 582 soundfiler;
#X obj 752 524 loadbang;
#X obj 485 599 bng 15 250 50 0 empty empty empty 17 7 0 10 -262144
-1 -1;
#X obj 522 600 bng 15 250 50 0 empty empty empty 17 7 0 10 -262144
-1 -1;
#X obj 485 730 dac~;
#N canvas 212 36 450 300 (subpatch) 0;
#X array Capcom_Max 81920 float 0;
#X coords 0 1 81919 -1 300 100 1 0 0;
#X restore 1200 625 graph;
#X obj 1204 579 soundfiler;
#X obj 1205 521 loadbang;
#X obj 390 711 *~;
#X obj 416 660 loadbang;
#X obj 566 712 *~;
#X obj 592 661 loadbang;
#X obj 484 550 r Min_Max_Sales_Capcom;
#X obj 390 633 tabplay~ Capcom_Min;
#X obj 566 633 tabplay~ Capcom_Max;
#X msg 752 552 read -resize MinSongs/Capcom.wav Capcom_Min;
#X msg 1205 549 read -resize MaxSongs/Capcom.wav Capcom_Max;
#X obj 253 446 tabread4~ soundData4;
#X msg 416 684 0.5;
#X msg 592 685 0.5;
#X connect 0 0 1 0;
#X connect 1 0 36 0;
#X connect 2 0 3 0;
#X connect 3 0 1 1;
#X connect 3 0 6 0;
#X connect 4 0 11 0;
#X connect 5 0 4 1;
#X connect 6 0 7 0;
#X connect 7 0 8 0;
#X connect 8 0 0 0;
#X connect 9 0 8 0;
#X connect 10 0 14 0;
#X connect 12 0 5 0;
#X connect 14 0 2 0;
#X connect 15 0 9 0;
#X connect 15 0 8 1;
#X connect 16 0 15 0;
#X connect 17 0 21 0;
#X connect 17 1 22 0;
#X connect 20 0 34 0;
#X connect 21 0 32 0;
#X connect 22 0 33 0;
#X connect 26 0 35 0;
#X connect 27 0 23 0;
#X connect 28 0 37 0;
#X connect 29 0 23 1;
#X connect 30 0 38 0;
#X connect 31 0 17 0;
#X connect 32 0 27 0;
#X connect 33 0 29 0;
#X connect 34 0 19 0;
#X connect 35 0 25 0;
#X connect 36 0 4 0;
#X connect 37 0 27 1;
#X connect 38 0 29 1;
#X restore 744 358 pd Capcom;
#N canvas -1928 79 1920 997 EA 0;
#X obj 216 338 phasor~;
#X obj 243 401 *~;
#X obj 212 161 soundfiler;
#X floatatom 212 187 15 0 1e+009 0 - - -;
#X obj 254 517 *~;
#X floatatom 269 496 5 0 1 0 - - -;
#X obj 204 216 expr 44100/$f1;
#X floatatom 288 255 5 0 0 0 - - -;
#X obj 319 318 * 1;
#X obj 330 288 bng 15 250 50 0 empty empty empty 17 7 0 10 -262144
-1 -1;
#X obj 213 103 loadbang;
#X obj 253 552 outlet~;
#X obj 349 225 inlet;
#X obj 269 469 inlet;
#X msg 213 133 read -resize PublisherSongs/EA.wav soundData5;
#N canvas 212 36 450 300 (subpatch) 0;
#X array soundData5 5.0729e+006 float 0;
#X coords 0 1 5.0729e+006 -1 300 100 1 0 0;
#X restore 613 218 graph;
#X floatatom 347 256 5 0 0 0 - - -;
#X obj 550 579 select -1 1;
#N canvas 212 36 450 300 (subpatch) 0;
#X array EA_Min 85372 float 0;
#X coords 0 1 85371 -1 300 100 1 0 0;
#X restore 812 634 graph;
#X obj 816 588 soundfiler;
#X obj 817 530 loadbang;
#X obj 550 605 bng 15 250 50 0 empty empty empty 17 7 0 10 -262144
-1 -1;
#X obj 587 606 bng 15 250 50 0 empty empty empty 17 7 0 10 -262144
-1 -1;
#X obj 550 736 dac~;
#N canvas 212 36 450 300 (subpatch) 0;
#X array EA_Max 69185 float 0;
#X coords 0 1 69184 -1 300 100 1 0 0;
#X restore 1265 631 graph;
#X obj 1269 585 soundfiler;
#X obj 1270 527 loadbang;
#X obj 455 717 *~;
#X obj 481 666 loadbang;
#X obj 631 718 *~;
#X obj 657 667 loadbang;
#X obj 455 639 tabplay~ EA_Min;
#X obj 631 639 tabplay~ EA_Max;
#X msg 817 558 read -resize MinSongs/EA.wav EA_Min;
#X msg 1270 555 read -resize MaxSongs/EA.wav EA_Max;
#X obj 549 556 r Min_Max_Sales_EA;
#X obj 243 445 tabread4~ soundData5;
#X msg 657 691 0.5;
#X msg 481 690 0.5;
#X connect 0 0 1 0;
#X connect 1 0 36 0;
#X connect 2 0 3 0;
#X connect 3 0 1 1;
#X connect 3 0 6 0;
#X connect 4 0 11 0;
#X connect 5 0 4 1;
#X connect 6 0 7 0;
#X connect 7 0 8 0;
#X connect 8 0 0 0;
#X connect 9 0 8 0;
#X connect 10 0 14 0;
#X connect 12 0 16 0;
#X connect 13 0 5 0;
#X connect 14 0 2 0;
#X connect 16 0 9 0;
#X connect 16 0 8 1;
#X connect 17 0 21 0;
#X connect 17 1 22 0;
#X connect 20 0 33 0;
#X connect 21 0 31 0;
#X connect 22 0 32 0;
#X connect 26 0 34 0;
#X connect 27 0 23 0;
#X connect 28 0 38 0;
#X connect 29 0 23 1;
#X connect 30 0 37 0;
#X connect 31 0 27 0;
#X connect 32 0 29 0;
#X connect 33 0 19 0;
#X connect 34 0 25 0;
#X connect 35 0 17 0;
#X connect 36 0 4 0;
#X connect 37 0 29 1;
#X connect 38 0 27 1;
#X restore 961 370 pd EA;
#N canvas -1928 79 1920 997 Konami 0;
#X obj 216 338 phasor~;
#X obj 243 401 *~;
#X obj 212 161 soundfiler;
#X floatatom 212 187 15 0 1e+009 0 - - -;
#X obj 254 517 *~;
#X floatatom 269 496 5 0 1 0 - - -;
#X obj 204 216 expr 44100/$f1;
#X floatatom 288 255 5 0 0 0 - - -;
#X obj 319 318 * 1;
#X obj 330 288 bng 15 250 50 0 empty empty empty 17 7 0 10 -262144
-1 -1;
#X obj 213 103 loadbang;
#X obj 253 552 outlet~;
#X obj 359 261 inlet;
#X obj 270 469 inlet;
#X msg 213 133 read -resize PublisherSongs/Konami.wav soundData6;
#N canvas 212 36 450 300 (subpatch) 0;
#X array soundData6 7.21306e+006 float 0;
#X coords 0 1 7.21306e+006 -1 300 100 1 0 0;
#X restore 613 218 graph;
#X obj 527 579 select -1 1;
#N canvas 212 36 450 300 (subpatch) 0;
#X array Konami_Min 240188 float 0;
#X coords 0 1 240187 -1 300 100 1 0 0;
#X restore 789 634 graph;
#X obj 793 588 soundfiler;
#X obj 794 530 loadbang;
#X obj 527 605 bng 15 250 50 0 empty empty empty 17 7 0 10 -262144
-1 -1;
#X obj 564 606 bng 15 250 50 0 empty empty empty 17 7 0 10 -262144
-1 -1;
#X obj 527 736 dac~;
#N canvas 212 36 450 300 (subpatch) 0;
#X array Konami_Max 48484 float 0;
#X coords 0 1 48483 -1 300 100 1 0 0;
#X restore 1242 631 graph;
#X obj 1246 585 soundfiler;
#X obj 1247 527 loadbang;
#X obj 432 717 *~;
#X obj 458 666 loadbang;
#X obj 608 718 *~;
#X obj 634 667 loadbang;
#X obj 526 556 r Min_Max_Sales_Konami;
#X obj 432 639 tabplay~ Konami_Min;
#X obj 608 639 tabplay~ Konami_Max;
#X msg 794 557 read -resize MinSongs/Konami.wav Konami_Min;
#X msg 1247 555 read -resize MaxSongs/Konami.wav Konami_Max;
#X obj 253 446 tabread4~ soundData6;
#X msg 458 690 0.5;
#X msg 634 691 0.5;
#X connect 0 0 1 0;
#X connect 1 0 35 0;
#X connect 2 0 3 0;
#X connect 3 0 1 1;
#X connect 3 0 6 0;
#X connect 4 0 11 0;
#X connect 5 0 4 1;
#X connect 6 0 7 0;
#X connect 7 0 8 0;
#X connect 8 0 0 0;
#X connect 9 0 8 0;
#X connect 10 0 14 0;
#X connect 12 0 9 0;
#X connect 12 0 8 1;
#X connect 13 0 5 0;
#X connect 14 0 2 0;
#X connect 16 0 20 0;
#X connect 16 1 21 0;
#X connect 19 0 33 0;
#X connect 20 0 31 0;
#X connect 21 0 32 0;
#X connect 25 0 34 0;
#X connect 26 0 22 0;
#X connect 27 0 36 0;
#X connect 28 0 22 1;
#X connect 29 0 37 0;
#X connect 30 0 16 0;
#X connect 31 0 26 0;
#X connect 32 0 28 0;
#X connect 33 0 18 0;
#X connect 34 0 24 0;
#X connect 35 0 4 0;
#X connect 36 0 26 1;
#X connect 37 0 28 1;
#X restore 1140 375 pd Konami;
#N canvas -8 -8 1920 997 Microsoft 0;
#X obj 216 338 phasor~;
#X obj 243 401 *~;
#X obj 212 161 soundfiler;
#X floatatom 212 187 15 0 1e+009 0 - - -;
#X obj 254 517 *~;
#X floatatom 269 496 5 0 1 0 - - -;
#X obj 204 216 expr 44100/$f1;
#X floatatom 288 255 5 0 0 0 - - -;
#X obj 319 318 * 1;
#X obj 330 288 bng 15 250 50 0 empty empty empty 17 7 0 10 -262144
-1 -1;
#X obj 213 103 loadbang;
#X obj 253 552 outlet~;
#X obj 271 471 inlet;
#X obj 358 267 inlet;
#X msg 213 133 read -resize PublisherSongs/Microsoft.wav soundData7
;
#N canvas 212 36 450 300 (subpatch) 0;
#X array soundData7 7.99949e+006 float 0;
#X coords 0 1 7.99949e+006 -1 300 100 1 0 0;
#X restore 638 207 graph;
#X obj 253 446 tabread4~ soundData7;
#X obj 550 579 select -1 1;
#N canvas 212 36 450 300 (subpatch) 0;
#X array Microsoft_Min 97280 float 0;
#X coords 0 1 97279 -1 300 100 1 0 0;
#X restore 812 634 graph;
#X obj 816 588 soundfiler;
#X obj 817 530 loadbang;
#X obj 550 605 bng 15 250 50 0 empty empty empty 17 7 0 10 -262144
-1 -1;
#X obj 587 606 bng 15 250 50 0 empty empty empty 17 7 0 10 -262144
-1 -1;
#X obj 550 736 dac~;
#N canvas 212 36 450 300 (subpatch) 0;
#X array Microsoft_Max 336597 float 0;
#X coords 0 1 336596 -1 300 100 1 0 0;
#X restore 1265 631 graph;
#X obj 1269 585 soundfiler;
#X obj 1270 527 loadbang;
#X obj 455 717 *~;
#X obj 481 666 loadbang;
#X obj 631 718 *~;
#X obj 657 667 loadbang;
#X obj 549 556 r Min_Max_Sales_Microsoft;
#X obj 455 639 tabplay~ Microsoft_Min;
#X obj 631 638 tabplay~ Microsoft_Max;
#X msg 817 558 read -resize MinSongs/Microsoft.wav Microsoft_Min;
#X msg 1270 555 read -resize MaxSongs/Microsoft.wav Microsoft_Max;
#X msg 657 691 0.5;
#X msg 481 690 0.5;
#X connect 0 0 1 0;
#X connect 1 0 16 0;
#X connect 2 0 3 0;
#X connect 3 0 1 1;
#X connect 3 0 6 0;
#X connect 4 0 11 0;
#X connect 5 0 4 1;
#X connect 6 0 7 0;
#X connect 7 0 8 0;
#X connect 8 0 0 0;
#X connect 9 0 8 0;
#X connect 10 0 14 0;
#X connect 12 0 5 0;
#X connect 13 0 9 0;
#X connect 13 0 8 1;
#X connect 14 0 2 0;
#X connect 16 0 4 0;
#X connect 17 0 21 0;
#X connect 17 1 22 0;
#X connect 20 0 34 0;
#X connect 21 0 32 0;
#X connect 22 0 33 0;
#X connect 26 0 35 0;
#X connect 27 0 23 0;
#X connect 28 0 37 0;
#X connect 29 0 23 1;
#X connect 30 0 36 0;
#X connect 31 0 17 0;
#X connect 32 0 27 0;
#X connect 33 0 29 0;
#X connect 34 0 19 0;
#X connect 35 0 25 0;
#X connect 36 0 29 1;
#X connect 37 0 27 1;
#X restore 1344 381 pd Microsoft;
#N canvas -8 -8 1920 997 NamcoBandai 0;
#X obj 84 284 phasor~;
#X obj 111 347 *~;
#X obj 80 107 soundfiler;
#X floatatom 80 133 15 0 1e+009 0 - - -;
#X obj 122 463 *~;
#X floatatom 137 442 5 0 1 0 - - -;
#X obj 72 162 expr 44100/$f1;
#X floatatom 156 201 5 0 0 0 - - -;
#X obj 187 264 * 1;
#X obj 198 234 bng 15 250 50 0 empty empty empty 17 7 0 10 -262144
-1 -1;
#X obj 81 49 loadbang;
#X obj 121 498 outlet~;
#X obj 139 417 inlet;
#X obj 226 213 inlet;
#N canvas 212 36 450 300 (subpatch) 0;
#X array soundData8 2.68698e+006 float 0;
#X coords 0 1 2.68698e+006 -1 300 100 1 0 0;
#X restore 506 153 graph;
#X msg 81 79 read -resize PublisherSongs/NamcoBandai.wav soundData8
;
#N canvas 212 36 450 300 (subpatch) 0;
#X array Namco_Min 519384 float 0;
#X coords 0 1 519383 -1 300 100 1 0 0;
#X restore 588 677 graph;
#X obj 592 631 soundfiler;
#X obj 593 573 loadbang;
#N canvas 212 36 450 300 (subpatch) 0;
#X array Namco_Max 331581 float 0;
#X coords 0 1 331580 -1 300 100 1 0 0;
#X restore 1042 674 graph;
#X obj 1045 628 soundfiler;
#X obj 1046 570 loadbang;
#X obj 121 392 tabread4~ soundData8;
#X msg 593 601 read -resize MinSongs/NamcoBandai.wav Namco_Min;
#X msg 1046 598 read -resize MaxSongs/NamcoBandai.wav Namco_Max;
#X obj 289 622 select -1 1;
#X obj 289 648 bng 15 250 50 0 empty empty empty 17 7 0 10 -262144
-1 -1;
#X obj 326 649 bng 15 250 50 0 empty empty empty 17 7 0 10 -262144
-1 -1;
#X obj 289 779 dac~;
#X obj 194 760 *~;
#X obj 220 709 loadbang;
#X obj 370 761 *~;
#X obj 396 710 loadbang;
#X msg 220 733 0.5;
#X msg 396 734 0.5;
#X obj 288 599 r Min_Max_Sales_Namco;
#X obj 370 682 tabplay~ Namco_Max;
#X obj 194 682 tabplay~ Namco_Min;
#X connect 0 0 1 0;
#X connect 1 0 22 0;
#X connect 2 0 3 0;
#X connect 3 0 1 1;
#X connect 3 0 6 0;
#X connect 4 0 11 0;
#X connect 5 0 4 1;
#X connect 6 0 7 0;
#X connect 7 0 8 0;
#X connect 8 0 0 0;
#X connect 9 0 8 0;
#X connect 10 0 15 0;
#X connect 12 0 5 0;
#X connect 13 0 9 0;
#X connect 13 0 8 1;
#X connect 15 0 2 0;
#X connect 18 0 23 0;
#X connect 21 0 24 0;
#X connect 22 0 4 0;
#X connect 23 0 17 0;
#X connect 24 0 20 0;
#X connect 25 0 26 0;
#X connect 25 1 27 0;
#X connect 26 0 37 0;
#X connect 27 0 36 0;
#X connect 29 0 28 0;
#X connect 30 0 33 0;
#X connect 31 0 28 1;
#X connect 32 0 34 0;
#X connect 33 0 29 1;
#X connect 34 0 31 1;
#X connect 35 0 25 0;
#X connect 36 0 31 0;
#X connect 37 0 29 0;
#X restore 60 765 pd NamcoBandai;
#N canvas -1928 79 1920 997 Nintendo 0;
#X obj 238 383 phasor~;
#X obj 265 446 *~;
#X obj 234 206 soundfiler;
#X floatatom 234 232 15 0 1e+009 0 - - -;
#X obj 276 562 *~;
#X floatatom 291 541 5 0 1 0 - - -;
#X obj 226 261 expr 44100/$f1;
#X floatatom 310 300 5 0 0 0 - - -;
#X obj 341 363 * 1;
#X obj 352 333 bng 15 250 50 0 empty empty empty 17 7 0 10 -262144
-1 -1;
#X obj 235 148 loadbang;
#X obj 275 597 outlet~;
#X obj 293 516 inlet;
#X obj 380 312 inlet;
#N canvas 212 36 450 300 (subpatch) 0;
#X array soundData9 3.62803e+006 float 0;
#X coords 0 1 3.62803e+006 -1 300 100 1 0 0;
#X restore 660 252 graph;
#X msg 235 178 read -resize PublisherSongs/Nintendo.wav soundData9
;
#X obj 275 491 tabread4~ soundData9;
#X obj 550 579 select -1 1;
#N canvas 212 36 450 300 (subpatch) 0;
#X array Nintendo_Min 131518 float 0;
#X coords 0 1 131517 -1 300 100 1 0 0;
#X restore 812 634 graph;
#X obj 816 588 soundfiler;
#X obj 817 530 loadbang;
#X obj 550 605 bng 15 250 50 0 empty empty empty 17 7 0 10 -262144
-1 -1;
#X obj 587 606 bng 15 250 50 0 empty empty empty 17 7 0 10 -262144
-1 -1;
#X obj 550 736 dac~;
#N canvas 212 36 450 300 (subpatch) 0;
#X array Nintendo_Max 276411 float 0;
#X coords 0 1 276410 -1 300 100 1 0 0;
#X restore 1265 631 graph;
#X obj 1269 585 soundfiler;
#X obj 1270 527 loadbang;
#X obj 455 717 *~;
#X obj 481 666 loadbang;
#X obj 631 718 *~;
#X obj 657 667 loadbang;
#X obj 549 556 r Min_Max_Sales_Nintendo;
#X obj 455 639 tabplay~ Nintendo_Min;
#X obj 631 638 tabplay~ Nintendo_Max;
#X msg 817 558 read -resize MinSongs/Nintendo.wav Nintendo_Min;
#X msg 1270 555 read -resize MaxSongs/Nintendo.wav Nintendo_Max;
#X msg 481 690 0.5;
#X msg 657 691 0.5;
#X connect 0 0 1 0;
#X connect 1 0 16 0;
#X connect 2 0 3 0;
#X connect 3 0 1 1;
#X connect 3 0 6 0;
#X connect 4 0 11 0;
#X connect 5 0 4 1;
#X connect 6 0 7 0;
#X connect 7 0 8 0;
#X connect 8 0 0 0;
#X connect 9 0 8 0;
#X connect 10 0 15 0;
#X connect 12 0 5 0;
#X connect 13 0 9 0;
#X connect 13 0 8 1;
#X connect 15 0 2 0;
#X connect 16 0 4 0;
#X connect 17 0 21 0;
#X connect 17 1 22 0;
#X connect 20 0 34 0;
#X connect 21 0 32 0;
#X connect 22 0 33 0;
#X connect 26 0 35 0;
#X connect 27 0 23 0;
#X connect 28 0 36 0;
#X connect 29 0 23 1;
#X connect 30 0 37 0;
#X connect 31 0 17 0;
#X connect 32 0 27 0;
#X connect 33 0 29 0;
#X connect 34 0 19 0;
#X connect 35 0 25 0;
#X connect 36 0 27 1;
#X connect 37 0 29 1;
#X restore 282 753 pd Nintendo;
#N canvas -1928 79 1920 997 Sega 0;
#X obj 120 343 phasor~;
#X obj 147 406 *~;
#X obj 116 166 soundfiler;
#X floatatom 116 192 15 0 1e+009 0 - - -;
#X obj 158 522 *~;
#X floatatom 173 501 5 0 1 0 - - -;
#X obj 108 221 expr 44100/$f1;
#X floatatom 192 260 5 0 0 0 - - -;
#X obj 223 323 * 1;
#X obj 234 293 bng 15 250 50 0 empty empty empty 17 7 0 10 -262144
-1 -1;
#X obj 117 108 loadbang;
#X obj 157 557 outlet~;
#X obj 175 476 inlet;
#X obj 262 272 inlet;
#N canvas 212 36 450 300 (subpatch) 0;
#X array soundData10 6.2423e+006 float 0;
#X coords 0 1 6.2423e+006 -1 300 100 1 0 0;
#X restore 542 212 graph;
#X msg 118 138 read -resize PublisherSongs/Sega.wav soundData10;
#X obj 157 451 tabread4~ soundData10;
#X obj 550 579 select -1 1;
#N canvas 212 36 450 300 (subpatch) 0;
#X array Sega_Min 49536 float 0;
#X coords 0 1 49535 -1 300 100 1 0 0;
#X restore 812 634 graph;
#X obj 816 588 soundfiler;
#X obj 817 530 loadbang;
#X obj 550 605 bng 15 250 50 0 empty empty empty 17 7 0 10 -262144
-1 -1;
#X obj 587 606 bng 15 250 50 0 empty empty empty 17 7 0 10 -262144
-1 -1;
#X obj 550 736 dac~;
#N canvas 212 36 450 300 (subpatch) 0;
#X array Sega_Max 346112 float 0;
#X coords 0 1 346111 -1 300 100 1 0 0;
#X restore 1265 631 graph;
#X obj 1269 585 soundfiler;
#X obj 1270 527 loadbang;
#X obj 455 717 *~;
#X obj 481 666 loadbang;
#X obj 631 718 *~;
#X obj 657 667 loadbang;
#X obj 549 556 r Min_Max_Sales_Sega;
#X obj 455 639 tabplay~ Sega_Min;
#X obj 631 637 tabplay~ Sega_Max;
#X msg 817 558 read -resize MinSongs/Sega.wav Sega_Min;
#X msg 1270 555 read -resize MaxSongs/Sega.wav Sega_Max;
#X msg 481 690 0.5;
#X msg 657 691 0.5;
#X connect 0 0 1 0;
#X connect 1 0 16 0;
#X connect 2 0 3 0;
#X connect 3 0 1 1;
#X connect 3 0 6 0;
#X connect 4 0 11 0;
#X connect 5 0 4 1;
#X connect 6 0 7 0;
#X connect 7 0 8 0;
#X connect 8 0 0 0;
#X connect 9 0 8 0;
#X connect 10 0 15 0;
#X connect 12 0 5 0;
#X connect 13 0 9 0;
#X connect 13 0 8 1;
#X connect 15 0 2 0;
#X connect 16 0 4 0;
#X connect 17 0 21 0;
#X connect 17 1 22 0;
#X connect 20 0 34 0;
#X connect 21 0 32 0;
#X connect 22 0 33 0;
#X connect 26 0 35 0;
#X connect 27 0 23 0;
#X connect 28 0 36 0;
#X connect 29 0 23 1;
#X connect 30 0 37 0;
#X connect 31 0 17 0;
#X connect 32 0 27 0;
#X connect 33 0 29 0;
#X connect 34 0 19 0;
#X connect 35 0 25 0;
#X connect 36 0 27 1;
#X connect 37 0 29 1;
#X restore 505 753 pd Sega;
#N canvas -1928 79 1920 997 Sony 0;
#X obj 136 409 phasor~;
#X obj 163 472 *~;
#X obj 132 232 soundfiler;
#X floatatom 132 258 15 0 1e+009 0 - - -;
#X obj 174 588 *~;
#X floatatom 189 567 5 0 1 0 - - -;
#X obj 124 287 expr 44100/$f1;
#X floatatom 208 326 5 0 0 0 - - -;
#X obj 239 389 * 1;
#X obj 250 359 bng 15 250 50 0 empty empty empty 17 7 0 10 -262144
-1 -1;
#X obj 133 174 loadbang;
#X obj 173 623 outlet~;
#X obj 191 542 inlet;
#X obj 278 338 inlet;
#N canvas 212 36 450 300 (subpatch) 0;
#X array soundData11 8.38144e+006 float 0;
#X coords 0 1 8.38144e+006 -1 300 100 1 0 0;
#X restore 558 278 graph;
#X msg 133 204 read -resize PublisherSongs/Sony.wav soundData11;
#X obj 550 579 select -1 1;
#N canvas 212 36 450 300 (subpatch) 0;
#X array Sony_Min 168299 float 0;
#X coords 0 1 168298 -1 300 100 1 0 0;
#X restore 812 634 graph;
#X obj 816 588 soundfiler;
#X obj 817 530 loadbang;
#X obj 550 605 bng 15 250 50 0 empty empty empty 17 7 0 10 -262144
-1 -1;
#X obj 587 606 bng 15 250 50 0 empty empty empty 17 7 0 10 -262144
-1 -1;
#X obj 550 736 dac~;
#N canvas 212 36 450 300 (subpatch) 0;
#X array Sony_Max 253562 float 0;
#X coords 0 1 253561 -1 300 100 1 0 0;
#X restore 1265 631 graph;
#X obj 1269 585 soundfiler;
#X obj 1270 527 loadbang;
#X obj 455 717 *~;
#X obj 481 666 loadbang;
#X obj 631 718 *~;
#X obj 657 667 loadbang;
#X obj 173 517 tabread4~ soundData11;
#X obj 549 556 r Min_Max_Sales_Sony;
#X obj 455 639 tabplay~ Sony_Min;
#X obj 631 638 tabplay~ Sony_Max;
#X msg 817 558 read -resize MinSongs/Sony.wav Sony_Min;
#X msg 1270 555 read -resize MaxSongs/Sony.wav Sony_Max;
#X msg 481 690 0.5;
#X msg 657 691 0.5;
#X connect 0 0 1 0;
#X connect 1 0 30 0;
#X connect 2 0 3 0;
#X connect 3 0 1 1;
#X connect 3 0 6 0;
#X connect 4 0 11 0;
#X connect 5 0 4 1;
#X connect 6 0 7 0;
#X connect 7 0 8 0;
#X connect 8 0 0 0;
#X connect 9 0 8 0;
#X connect 10 0 15 0;
#X connect 12 0 5 0;
#X connect 13 0 9 0;
#X connect 13 0 8 1;
#X connect 15 0 2 0;
#X connect 16 0 20 0;
#X connect 16 1 21 0;
#X connect 19 0 34 0;
#X connect 20 0 32 0;
#X connect 21 0 33 0;
#X connect 25 0 35 0;
#X connect 26 0 22 0;
#X connect 27 0 36 0;
#X connect 28 0 22 1;
#X connect 29 0 37 0;
#X connect 30 0 4 0;
#X connect 31 0 16 0;
#X connect 32 0 26 0;
#X connect 33 0 28 0;
#X connect 34 0 18 0;
#X connect 35 0 24 0;
#X connect 36 0 26 1;
#X connect 37 0 28 1;
#X restore 700 752 pd Sony;
#N canvas -1928 79 1920 997 SquareEnix 0;
#X obj 153 378 phasor~;
#X obj 180 441 *~;
#X obj 149 201 soundfiler;
#X floatatom 149 227 15 0 1e+009 0 - - -;
#X obj 191 557 *~;
#X floatatom 206 536 5 0 1 0 - - -;
#X obj 141 256 expr 44100/$f1;
#X floatatom 225 295 5 0 0 0 - - -;
#X obj 256 358 * 1;
#X obj 267 328 bng 15 250 50 0 empty empty empty 17 7 0 10 -262144
-1 -1;
#X obj 150 143 loadbang;
#X obj 190 592 outlet~;
#X obj 208 511 inlet;
#X obj 295 307 inlet;
#N canvas 212 36 450 300 (subpatch) 0;
#X array soundData12 6.88333e+006 float 0;
#X coords 0 1 6.88333e+006 -1 300 100 1 0 0;
#X restore 575 247 graph;
#X msg 150 173 read -resize PublisherSongs/SquareEnix.wav soundData12
;
#X obj 190 486 tabread4~ soundData12;
#X obj 550 579 select -1 1;
#N canvas 212 36 450 300 (subpatch) 0;
#X array SquareEnix_Min 213996 float 0;
#X coords 0 1 213995 -1 300 100 1 0 0;
#X restore 812 634 graph;
#X obj 816 588 soundfiler;
#X obj 817 530 loadbang;
#X obj 550 605 bng 15 250 50 0 empty empty empty 17 7 0 10 -262144
-1 -1;
#X obj 587 606 bng 15 250 50 0 empty empty empty 17 7 0 10 -262144
-1 -1;
#X obj 550 736 dac~;
#N canvas 212 36 450 300 (subpatch) 0;
#X array SquareEnix_Max 440687 float 0;
#X coords 0 1 440686 -1 300 100 1 0 0;
#X restore 1265 631 graph;
#X obj 1269 585 soundfiler;
#X obj 1270 527 loadbang;
#X obj 455 717 *~;
#X obj 481 666 loadbang;
#X obj 631 718 *~;
#X obj 657 667 loadbang;
#X obj 549 556 r Min_Max_Sales_SquareEnix;
#X obj 455 639 tabplay~ SquareEnix_Min;
#X obj 631 638 tabplay~ SquareEnix_Max;
#X msg 817 558 read -resize MinSongs/SquareEnix.wav SquareEnix_Min
;
#X msg 1270 555 read -resize MaxSongs/SquareEnix.wav SquareEnix_Max
;
#X msg 481 690 0.5;
#X msg 657 691 0.5;
#X connect 0 0 1 0;
#X connect 1 0 16 0;
#X connect 2 0 3 0;
#X connect 3 0 1 1;
#X connect 3 0 6 0;
#X connect 4 0 11 0;
#X connect 5 0 4 1;
#X connect 6 0 7 0;
#X connect 7 0 8 0;
#X connect 8 0 0 0;
#X connect 9 0 8 0;
#X connect 10 0 15 0;
#X connect 12 0 5 0;
#X connect 13 0 9 0;
#X connect 13 0 8 1;
#X connect 15 0 2 0;
#X connect 16 0 4 0;
#X connect 17 0 21 0;
#X connect 17 1 22 0;
#X connect 20 0 34 0;
#X connect 21 0 32 0;
#X connect 22 0 33 0;
#X connect 26 0 35 0;
#X connect 27 0 23 0;
#X connect 28 0 36 0;
#X connect 29 0 23 1;
#X connect 30 0 37 0;
#X connect 31 0 17 0;
#X connect 32 0 27 0;
#X connect 33 0 29 0;
#X connect 34 0 19 0;
#X connect 35 0 25 0;
#X connect 36 0 27 1;
#X connect 37 0 29 1;
#X restore 893 757 pd SquareEnix;
#N canvas -1928 79 1920 997 TakeTwo 0;
#X obj 133 330 phasor~;
#X obj 160 393 *~;
#X obj 129 153 soundfiler;
#X floatatom 129 179 15 0 1e+009 0 - - -;
#X obj 171 509 *~;
#X floatatom 186 488 5 0 1 0 - - -;
#X obj 121 208 expr 44100/$f1;
#X floatatom 205 247 5 0 0 0 - - -;
#X obj 236 310 * 1;
#X obj 247 280 bng 15 250 50 0 empty empty empty 17 7 0 10 -262144
-1 -1;
#X obj 130 95 loadbang;
#X obj 170 544 outlet~;
#X obj 188 463 inlet;
#X obj 275 259 inlet;
#N canvas 212 36 450 300 (subpatch) 0;
#X array soundData13 1.62847e+007 float 0;
#X coords 0 1 1.62847e+007 -1 300 100 1 0 0;
#X restore 555 199 graph;
#X msg 130 125 read -resize PublisherSongs/TakeTwo.wav soundData13
;
#X obj 170 438 tabread4~ soundData13;
#X obj 550 579 select -1 1;
#N canvas 212 36 450 300 (subpatch) 0;
#X array TakeTwo_Min 371706 float 0;
#X coords 0 1 371705 -1 300 100 1 0 0;
#X restore 812 634 graph;
#X obj 816 588 soundfiler;
#X obj 817 530 loadbang;
#X obj 550 605 bng 15 250 50 0 empty empty empty 17 7 0 10 -262144
-1 -1;
#X obj 587 606 bng 15 250 50 0 empty empty empty 17 7 0 10 -262144
-1 -1;
#X obj 550 736 dac~;
#N canvas 212 36 450 300 (subpatch) 0;
#X array TakeTwo_Max 446938 float 0;
#X coords 0 1 446937 -1 300 100 1 0 0;
#X restore 1265 631 graph;
#X obj 1269 585 soundfiler;
#X obj 1270 527 loadbang;
#X obj 455 717 *~;
#X obj 481 666 loadbang;
#X obj 631 718 *~;
#X obj 657 667 loadbang;
#X obj 549 556 r Min_Max_Sales_TakeTwo;
#X obj 455 639 tabplay~ TakeTwo_Min;
#X obj 631 638 tabplay~ TakeTwo_Max;
#X msg 817 558 read -resize MinSongs/TakeTwo.wav TakeTwo_Min;
#X msg 1269 555 read -resize MaxSongs/TakeTwo.wav TakeTwo_Max;
#X msg 481 690 0.5;
#X msg 657 691 0.5;
#X connect 0 0 1 0;
#X connect 1 0 16 0;
#X connect 2 0 3 0;
#X connect 3 0 1 1;
#X connect 3 0 6 0;
#X connect 4 0 11 0;
#X connect 5 0 4 1;
#X connect 6 0 7 0;
#X connect 7 0 8 0;
#X connect 8 0 0 0;
#X connect 9 0 8 0;
#X connect 10 0 15 0;
#X connect 12 0 5 0;
#X connect 13 0 9 0;
#X connect 13 0 8 1;
#X connect 15 0 2 0;
#X connect 16 0 4 0;
#X connect 17 0 21 0;
#X connect 17 1 22 0;
#X connect 20 0 34 0;
#X connect 21 0 32 0;
#X connect 22 0 33 0;
#X connect 26 0 35 0;
#X connect 27 0 23 0;
#X connect 28 0 36 0;
#X connect 29 0 23 1;
#X connect 30 0 37 0;
#X connect 31 0 17 0;
#X connect 32 0 27 0;
#X connect 33 0 29 0;
#X connect 34 0 19 0;
#X connect 35 0 25 0;
#X connect 36 0 27 1;
#X connect 37 0 29 1;
#X restore 1121 748 pd TakeTwo;
#N canvas -1928 79 1920 997 Ubisoft 0;
#X obj 84 284 phasor~;
#X obj 111 347 *~;
#X obj 80 107 soundfiler;
#X floatatom 80 133 15 0 1e+009 0 - - -;
#X obj 122 463 *~;
#X floatatom 137 442 5 0 1 0 - - -;
#X obj 72 162 expr 44100/$f1;
#X floatatom 156 201 5 0 0 0 - - -;
#X obj 187 264 * 1;
#X obj 198 234 bng 15 250 50 0 empty empty empty 17 7 0 10 -262144
-1 -1;
#X obj 81 49 loadbang;
#X obj 121 498 outlet~;
#X obj 139 417 inlet;
#X obj 226 213 inlet;
#N canvas 212 36 450 300 (subpatch) 0;
#X array soundData14 1.05687e+007 float 0;
#X coords 0 1 1.05687e+007 -1 300 100 1 0 0;
#X restore 506 153 graph;
#X msg 81 79 read -resize PublisherSongs/Ubisoft.wav soundData14;
#X obj 121 392 tabread4~ soundData14;
#X obj 509 499 select -1 1;
#N canvas 212 36 450 300 (subpatch) 0;
#X array Ubisoft_Min 240256 float 0;
#X coords 0 1 240255 -1 300 100 1 0 0;
#X restore 771 554 graph;
#X obj 775 508 soundfiler;
#X obj 776 450 loadbang;
#X obj 509 525 bng 15 250 50 0 empty empty empty 17 7 0 10 -262144
-1 -1;
#X obj 546 526 bng 15 250 50 0 empty empty empty 17 7 0 10 -262144
-1 -1;
#X obj 509 656 dac~;
#N canvas 212 36 450 300 (subpatch) 0;
#X array Ubisoft_Max 268304 float 0;
#X coords 0 1 268303 -1 300 100 1 0 0;
#X restore 1224 551 graph;
#X obj 1228 505 soundfiler;
#X obj 1229 447 loadbang;
#X obj 414 637 *~;
#X obj 440 586 loadbang;
#X obj 590 638 *~;
#X obj 616 587 loadbang;
#X obj 508 476 r Min_Max_Sales_Ubisoft;
#X obj 414 559 tabplay~ Ubisoft_Min;
#X obj 590 558 tabplay~ Ubisoft_Max;
#X msg 776 478 read -resize MinSongs/Ubisoft.wav Ubisoft_Min;
#X msg 1229 475 read -resize MaxSongs/Ubisoft.wav Ubisoft_Max;
#X msg 440 610 0.5;
#X msg 616 611 0.5;
#X connect 0 0 1 0;
#X connect 1 0 16 0;
#X connect 2 0 3 0;
#X connect 3 0 1 1;
#X connect 3 0 6 0;
#X connect 4 0 11 0;
#X connect 5 0 4 1;
#X connect 6 0 7 0;
#X connect 7 0 8 0;
#X connect 8 0 0 0;
#X connect 9 0 8 0;
#X connect 10 0 15 0;
#X connect 12 0 5 0;
#X connect 13 0 9 0;
#X connect 13 0 8 1;
#X connect 15 0 2 0;
#X connect 16 0 4 0;
#X connect 17 0 21 0;
#X connect 17 1 22 0;
#X connect 20 0 34 0;
#X connect 21 0 32 0;
#X connect 22 0 33 0;
#X connect 26 0 35 0;
#X connect 27 0 23 0;
#X connect 28 0 36 0;
#X connect 29 0 23 1;
#X connect 30 0 37 0;
#X connect 31 0 17 0;
#X connect 32 0 27 0;
#X connect 33 0 29 0;
#X connect 34 0 19 0;
#X connect 35 0 25 0;
#X connect 36 0 27 1;
#X connect 37 0 29 1;
#X restore 1336 748 pd Ubisoft;
#X obj 319 346 hsl 128 15 0.5 1.5 0 0 empty empty playback_speed -2
-8 0 10 -262144 -1 -1 0 1;
#X obj 293 243 vsl 15 128 0 2 0 0 empty empty volume 0 -9 0 10 -262144
-1 -1 0 1;
#X obj 519 343 hsl 128 15 0.5 1.5 0 0 empty empty playback_speed -2
-8 0 10 -262144 -1 -1 0 1;
#X obj 495 242 vsl 15 128 0 0.5 0 0 empty empty volume 0 -9 0 10 -262144
-1 -1 0 1;
#X obj 748 328 hsl 128 15 0.5 1.5 0 0 empty empty playback_speed -2
-8 0 10 -262144 -1 -1 0 1;
#X obj 720 227 vsl 15 128 0 0.5 0 0 empty empty volume 0 -9 0 10 -262144
-1 -1 0 1;
#X obj 316 485 dac~;
#X obj 317 454 *~;
#X msg 360 435 0;
#X obj 360 409 loadbang;
#X obj 514 491 dac~;
#X obj 515 460 *~;
#X msg 558 441 0;
#X obj 558 415 loadbang;
#X obj 740 469 dac~;
#X obj 741 438 *~;
#X msg 784 419 0;
#X obj 784 393 loadbang;
#X obj 964 334 hsl 128 15 0.5 1.5 0 0 empty empty playback_speed -2
-8 0 10 -262144 -1 -1 0 1;
#X obj 930 227 vsl 15 128 0 0.5 0 0 empty empty volume 0 -9 0 10 -262144
-1 -1 0 1;
#X obj 966 469 dac~;
#X obj 967 438 *~;
#X msg 1010 419 0;
#X obj 1010 393 loadbang;
#X obj 84 714 hsl 128 15 0.5 1.5 0 0 empty empty playback_speed -2
-8 0 10 -262144 -1 -1 0 1;
#X obj 50 607 vsl 15 128 0 0.5 0 0 empty empty volume 0 -9 0 10 -262144
-1 -1 0 1;
#X obj 285 714 hsl 128 15 0.5 1.5 0 0 empty empty playback_speed -2
-8 0 10 -262144 -1 -1 0 1;
#X obj 251 607 vsl 15 128 0 0.5 0 0 empty empty volume 0 -9 0 10 -262144
-1 -1 0 1;
#X obj 1149 335 hsl 128 15 0.5 1.5 0 0 empty empty playback_speed -2
-8 0 10 -262144 -1 -1 0 1;
#X obj 1115 228 vsl 15 128 0 0.5 0 0 empty empty volume 0 -9 0 10 -262144
-1 -1 0 1;
#X obj 1176 470 dac~;
#X obj 1177 439 *~;
#X msg 1220 420 0;
#X obj 1220 394 loadbang;
#X obj 1362 337 hsl 128 15 0.5 1.5 0 0 empty empty playback_speed -2
-8 0 10 -262144 -1 -1 0 1;
#X obj 1328 230 vsl 15 128 0 0.5 0 0 empty empty volume 0 -9 0 10 -262144
-1 -1 0 1;
#X obj 519 725 hsl 128 15 0.5 1.5 0 0 empty empty playback_speed -2
-8 0 10 -262144 -1 -1 0 1;
#X obj 479 610 vsl 15 128 0 0.5 0 0 empty empty volume 0 -9 0 10 -262144
-1 -1 0 1;
#X obj 713 716 hsl 128 15 0.5 1.5 0 0 empty empty playback_speed -2
-8 0 10 -262144 -1 -1 0 1;
#X obj 679 609 vsl 15 128 0 0.5 0 0 empty empty volume 0 -9 0 10 -262144
-1 -1 0 1;
#X obj 904 714 hsl 128 15 0.5 1.5 0 0 empty empty playback_speed -2
-8 0 10 -262144 -1 -1 0 1;
#X obj 870 607 vsl 15 128 0 0.5 0 0 empty empty volume 0 -9 0 10 -262144
-1 -1 0 1;
#X obj 1141 707 hsl 128 15 0.5 1.5 0 0 empty empty playback_speed -2
-8 0 10 -262144 -1 -1 0 1;
#X obj 1107 600 vsl 15 128 0 0.5 0 0 empty empty volume 0 -9 0 10 -262144
-1 -1 0 1;
#X obj 1358 708 hsl 128 15 0.5 1.5 0 0 empty empty playback_speed -2
-8 0 10 -262144 -1 -1 0 1;
#X obj 1324 601 vsl 15 128 0 0.5 0 0 empty empty volume 0 -9 0 10 -262144
-1 -1 0 1;
#X obj 52 867 dac~;
#X obj 63 843 *~;
#X msg 106 824 0;
#X obj 106 798 loadbang;
#X obj 271 863 dac~;
#X obj 272 832 *~;
#X msg 315 813 0;
#X obj 315 787 loadbang;
#X obj 506 862 dac~;
#X obj 507 831 *~;
#X msg 550 812 0;
#X obj 550 786 loadbang;
#X obj 694 859 dac~;
#X obj 695 828 *~;
#X msg 738 809 0;
#X obj 738 783 loadbang;
#X obj 917 861 dac~;
#X obj 918 830 *~;
#X msg 961 811 0;
#X obj 961 785 loadbang;
#X obj 1139 855 dac~;
#X obj 1140 824 *~;
#X msg 1183 805 0;
#X obj 1183 779 loadbang;
#X obj 1348 854 dac~;
#X obj 1349 823 *~;
#X msg 1392 804 0;
#X obj 1392 778 loadbang;
#X obj 1396 475 dac~;
#X obj 1397 444 *~;
#X msg 1440 425 0;
#X obj 1440 399 loadbang;
#X obj 105 160 r Global_Sales_Activision;
#X obj 50 133 r Average_Critic_Score_Activision;
#X floatatom 103 209 5 0 0 0 - - -;
#X obj 105 186 / 200;
#X floatatom 50 181 5 0 0 0 - - -;
#X obj 50 158 / 5;
#X floatatom 343 209 5 0 0 0 - - -;
#X obj 345 186 / 200;
#X floatatom 290 181 5 0 0 0 - - -;
#X obj 290 158 / 5;
#X floatatom 548 209 5 0 0 0 - - -;
#X obj 550 186 / 200;
#X floatatom 495 181 5 0 0 0 - - -;
#X obj 495 158 / 5;
#X obj 290 133 r Average_Critic_Score_Atari;
#X obj 345 160 r Global_Sales_Atari;
#X obj 550 160 r Global_Sales_Bethesda;
#X obj 495 133 r Average_Critic_Score_Bethesda;
#X floatatom 773 209 5 0 0 0 - - -;
#X obj 775 186 / 200;
#X floatatom 720 181 5 0 0 0 - - -;
#X obj 720 158 / 5;
#X obj 775 160 r Global_Sales_Capcom;
#X obj 720 133 r Average_Critic_Score_Capcom;
#X floatatom 983 208 5 0 0 0 - - -;
#X obj 985 185 / 200;
#X floatatom 930 180 5 0 0 0 - - -;
#X obj 930 157 / 5;
#X obj 930 132 r Average_Critic_Score_EA;
#X obj 985 159 r Global_Sales_EA;
#X floatatom 1167 209 5 0 0 0 - - -;
#X obj 1169 186 / 200;
#X floatatom 1114 181 5 0 0 0 - - -;
#X obj 1114 158 / 5;
#X floatatom 1379 210 5 0 0 0 - - -;
#X obj 1381 187 / 200;
#X floatatom 1326 182 5 0 0 0 - - -;
#X obj 1326 159 / 5;
#X obj 1114 133 r Average_Critic_Score_Konami;
#X obj 1169 160 r Global_Sales_Konami;
#X obj 1326 134 r Average_Critic_Score_Microsoft;
#X obj 1381 161 r Global_Sales_Microsoft;
#X obj 109 8 bng 100 250 50 0 start empty Start 0 40 0 16 -4034 -1
-1;
#X floatatom 103 587 5 0 0 0 - - -;
#X obj 105 564 / 200;
#X floatatom 50 566 5 0 0 0 - - -;
#X obj 50 543 / 5;
#X obj 50 518 r Average_Critic_Score_Namco;
#X obj 105 541 r Global_Sales_Namco;
#X floatatom 307 586 5 0 0 0 - - -;
#X obj 309 563 / 200;
#X floatatom 254 565 5 0 0 0 - - -;
#X obj 254 542 / 5;
#X obj 254 517 r Average_Critic_Score_Nintendo;
#X obj 309 540 r Global_Sales_Nintendo;
#X floatatom 533 585 5 0 0 0 - - -;
#X obj 535 562 / 200;
#X floatatom 480 564 5 0 0 0 - - -;
#X obj 480 541 / 5;
#X obj 480 516 r Average_Critic_Score_Sega;
#X obj 535 539 r Global_Sales_Sega;
#X floatatom 729 584 5 0 0 0 - - -;
#X obj 731 561 / 200;
#X floatatom 676 563 5 0 0 0 - - -;
#X obj 676 540 / 5;
#X obj 731 538 r Global_Sales_Sony;
#X obj 676 515 r Average_Critic_Score_Sony;
#X floatatom 924 584 5 0 0 0 - - -;
#X obj 926 561 / 200;
#X floatatom 871 563 5 0 0 0 - - -;
#X obj 871 540 / 5;
#X obj 871 515 r Average_Critic_Score_SquareEnix;
#X obj 926 538 r Global_Sales_SquareEnix;
#X obj 8 895 bng 100 250 50 0 restart empty Restart 0 40 0 16 -260097
-1 -1;
#X floatatom 1161 584 5 0 0 0 - - -;
#X obj 1163 561 / 200;
#X floatatom 1108 563 5 0 0 0 - - -;
#X obj 1108 540 / 5;
#X obj 1108 515 r Average_Critic_Score_TakeTwo;
#X obj 1163 538 r Global_Sales_TakeTwo;
#X floatatom 1378 584 5 0 0 0 - - -;
#X obj 1380 561 / 200;
#X floatatom 1325 563 5 0 0 0 - - -;
#X obj 1325 540 / 5;
#X obj 1325 515 r Average_Critic_Score_Ubisoft;
#X obj 1380 538 r Global_Sales_Ubisoft;
#X obj 1624 752 qlist;
#X msg 1634 713 bang;
#X msg 1755 734 tempo \$1;
#X msg 1643 732 rewind;
#X msg 1755 717 1;
#X obj 1623 670 loadbang;
#X obj 245 90 qlist;
#X msg 255 51 bang;
#X msg 376 72 tempo \$1;
#X msg 264 70 rewind;
#X msg 376 53 1;
#X obj 244 8 loadbang;
#X msg 245 32 read Scripts/ActivisionScript.txt;
#X obj 499 94 qlist;
#X msg 509 55 bang;
#X msg 630 76 tempo \$1;
#X msg 518 74 rewind;
#X msg 630 59 1;
#X obj 498 12 loadbang;
#X msg 499 36 read Scripts/AtariScript.txt;
#X obj 717 89 qlist;
#X msg 727 50 bang;
#X msg 848 71 tempo \$1;
#X msg 736 69 rewind;
#X msg 848 54 1;
#X obj 716 7 loadbang;
#X msg 717 31 read Scripts/CapcomScript.txt;
#X obj 946 85 qlist;
#X msg 956 46 bang;
#X msg 1077 69 tempo \$1;
#X msg 965 65 rewind;
#X msg 1077 50 1;
#X obj 945 3 loadbang;
#X msg 946 27 read Scripts/EAScript.txt;
#X obj 1154 89 qlist;
#X msg 1164 50 bang;
#X msg 1285 72 tempo \$1;
#X msg 1173 69 rewind;
#X msg 1285 54 1;
#X obj 1153 7 loadbang;
#X msg 1154 31 read Scripts/KonamiScript.txt;
#X obj 1377 86 qlist;
#X msg 1387 47 bang;
#X msg 1508 68 tempo \$1;
#X msg 1396 66 rewind;
#X msg 1508 51 1;
#X obj 1376 4 loadbang;
#X msg 1377 28 read Scripts/MicrosoftScript.txt;
#X obj 1619 84 qlist;
#X msg 1629 45 bang;
#X msg 1750 66 tempo \$1;
#X msg 1638 64 rewind;
#X msg 1750 49 1;
#X obj 1618 2 loadbang;
#X msg 1619 26 read Scripts/NamcoScript.txt;
#X obj 1618 197 qlist;
#X msg 1628 158 bang;
#X msg 1749 179 tempo \$1;
#X msg 1637 177 rewind;
#X msg 1749 162 1;
#X obj 1617 115 loadbang;
#X msg 1618 139 read Scripts/NintendoScript.txt;
#X obj 1619 309 qlist;
#X msg 1629 270 bang;
#X msg 1750 291 tempo \$1;
#X msg 1638 289 rewind;
#X msg 1750 274 1;
#X obj 1618 227 loadbang;
#X msg 1619 251 read Scripts/NintendoScript.txt;
#X obj 1622 418 qlist;
#X msg 1632 379 bang;
#X msg 1753 400 tempo \$1;
#X msg 1641 398 rewind;
#X msg 1753 383 1;
#X obj 1621 336 loadbang;
#X msg 1622 360 read Scripts/SegaScript.txt;
#X obj 1623 529 qlist;
#X msg 1633 490 bang;
#X msg 1754 511 tempo \$1;
#X msg 1642 509 rewind;
#X msg 1754 494 1;
#X obj 1622 447 loadbang;
#X msg 1623 471 read Scripts/SonyScript.txt;
#X obj 1622 640 qlist;
#X msg 1632 601 bang;
#X msg 1753 622 tempo \$1;
#X msg 1641 620 rewind;
#X msg 1753 605 1;
#X obj 1621 558 loadbang;
#X msg 1622 582 read Scripts/SquareEnixScript.txt;
#X msg 1624 694 read Scripts/TakeTwoScript.txt;
#X obj 1626 869 qlist;
#X msg 1636 830 bang;
#X msg 1757 851 tempo \$1;
#X msg 1645 849 rewind;
#X msg 1757 834 1;
#X obj 1625 787 loadbang;
#X msg 1626 811 read Scripts/Ubisoft.txt;
#X obj 407 10 r start;
#X obj 648 12 r start;
#X obj 874 8 r start;
#X obj 1082 3 r start;
#X obj 1315 8 r start;
#X obj 1547 5 r start;
#X obj 1771 2 r start;
#X obj 1789 115 r start;
#X obj 1796 228 r start;
#X obj 1775 334 r start;
#X obj 1770 447 r start;
#X obj 1801 559 r start;
#X obj 1789 672 r start;
#X obj 1785 785 r start;
#X obj 324 8 r restart;
#X obj 567 10 r restart;
#X obj 788 7 r restart;
#X obj 1010 4 r restart;
#X obj 1229 8 r restart;
#X obj 1453 5 r restart;
#X obj 1690 3 r restart;
#X obj 1701 114 r restart;
#X obj 1698 225 r restart;
#X obj 1697 334 r restart;
#X obj 1692 448 r restart;
#X obj 1698 556 r restart;
#X obj 1699 670 r restart;
#X obj 1699 786 r restart;
#X obj 597 914 hsl 500 50 0 1 0 0 speed empty Speed 20 20 0 20 -159808
-1 -1 0 1;
#X obj 399 94 r speed;
#X obj 642 99 r speed;
#X obj 872 92 r speed;
#X msg 221 433 0.5;
#X msg 597 442 0.5;
#X msg 823 420 0.5;
#X msg 1049 420 0.5;
#X msg 1259 421 0.5;
#X msg 1479 426 0.5;
#X msg 145 825 0.5;
#X msg 354 814 0.5;
#X msg 589 813 0.5;
#X msg 777 810 0.5;
#X msg 1000 812 0.5;
#X msg 1222 806 0.5;
#X msg 1436 803 0.5;
#X obj 1089 89 r speed;
#X obj 1304 90 r speed;
#X obj 1522 89 r speed;
#X obj 1772 86 r speed;
#X obj 1772 198 r speed;
#X obj 1773 310 r speed;
#X obj 1770 419 r speed;
#X obj 1766 530 r speed;
#X obj 1771 641 r speed;
#X obj 1773 752 r speed;
#X obj 1778 870 r speed;
#X msg 399 436 1;
#X text 120 936 press start to actually continue the dataset;
#X connect 0 0 1 0;
#X connect 2 0 6 0;
#X connect 3 0 2 0;
#X connect 4 0 2 1;
#X connect 6 0 5 0;
#X connect 6 0 5 1;
#X connect 7 0 6 1;
#X connect 8 0 316 0;
#X connect 9 0 29 0;
#X connect 10 0 33 0;
#X connect 11 0 37 0;
#X connect 12 0 43 0;
#X connect 13 0 53 0;
#X connect 14 0 97 0;
#X connect 15 0 69 0;
#X connect 16 0 73 0;
#X connect 17 0 77 0;
#X connect 18 0 81 0;
#X connect 19 0 85 0;
#X connect 20 0 89 0;
#X connect 21 0 93 0;
#X connect 22 0 9 1;
#X connect 23 0 9 0;
#X connect 24 0 10 1;
#X connect 25 0 10 0;
#X connect 26 0 11 1;
#X connect 27 0 11 0;
#X connect 29 0 28 0;
#X connect 29 0 28 1;
#X connect 30 0 29 1;
#X connect 31 0 340 0;
#X connect 33 0 32 0;
#X connect 33 0 32 1;
#X connect 34 0 33 1;
#X connect 35 0 317 0;
#X connect 37 0 36 0;
#X connect 37 0 36 1;
#X connect 38 0 37 1;
#X connect 39 0 318 0;
#X connect 40 0 12 1;
#X connect 41 0 12 0;
#X connect 43 0 42 0;
#X connect 43 0 42 1;
#X connect 44 0 43 1;
#X connect 45 0 319 0;
#X connect 46 0 15 1;
#X connect 47 0 15 0;
#X connect 48 0 16 1;
#X connect 49 0 16 0;
#X connect 50 0 13 1;
#X connect 51 0 13 0;
#X connect 53 0 52 0;
#X connect 53 0 52 1;
#X connect 54 0 53 1;
#X connect 55 0 320 0;
#X connect 56 0 14 1;
#X connect 57 0 14 0;
#X connect 58 0 17 1;
#X connect 59 0 17 0;
#X connect 60 0 18 1;
#X connect 61 0 18 0;
#X connect 62 0 19 1;
#X connect 63 0 19 0;
#X connect 64 0 20 1;
#X connect 65 0 20 0;
#X connect 66 0 21 1;
#X connect 67 0 21 0;
#X connect 69 0 68 0;
#X connect 69 0 68 1;
#X connect 70 0 69 1;
#X connect 71 0 322 0;
#X connect 73 0 72 0;
#X connect 73 0 72 1;
#X connect 74 0 73 1;
#X connect 75 0 323 0;
#X connect 77 0 76 0;
#X connect 77 0 76 1;
#X connect 78 0 77 1;
#X connect 79 0 324 0;
#X connect 81 0 80 0;
#X connect 81 0 80 1;
#X connect 82 0 81 1;
#X connect 83 0 325 0;
#X connect 85 0 84 0;
#X connect 85 0 84 1;
#X connect 86 0 85 1;
#X connect 87 0 326 0;
#X connect 89 0 88 0;
#X connect 89 0 88 1;
#X connect 90 0 89 1;
#X connect 91 0 327 0;
#X connect 93 0 92 0;
#X connect 93 0 92 1;
#X connect 94 0 93 1;
#X connect 95 0 328 0;
#X connect 97 0 96 0;
#X connect 97 0 96 1;
#X connect 98 0 97 1;
#X connect 99 0 321 0;
#X connect 100 0 103 0;
#X connect 101 0 105 0;
#X connect 102 0 4 0;
#X connect 103 0 102 0;
#X connect 104 0 3 0;
#X connect 105 0 104 0;
#X connect 106 0 23 0;
#X connect 107 0 106 0;
#X connect 108 0 22 0;
#X connect 109 0 108 0;
#X connect 110 0 25 0;
#X connect 111 0 110 0;
#X connect 112 0 24 0;
#X connect 113 0 112 0;
#X connect 114 0 109 0;
#X connect 115 0 107 0;
#X connect 116 0 111 0;
#X connect 117 0 113 0;
#X connect 118 0 27 0;
#X connect 119 0 118 0;
#X connect 120 0 26 0;
#X connect 121 0 120 0;
#X connect 122 0 119 0;
#X connect 123 0 121 0;
#X connect 124 0 41 0;
#X connect 125 0 124 0;
#X connect 126 0 40 0;
#X connect 127 0 126 0;
#X connect 128 0 127 0;
#X connect 129 0 125 0;
#X connect 130 0 51 0;
#X connect 131 0 130 0;
#X connect 132 0 50 0;
#X connect 133 0 132 0;
#X connect 134 0 57 0;
#X connect 135 0 134 0;
#X connect 136 0 56 0;
#X connect 137 0 136 0;
#X connect 138 0 133 0;
#X connect 139 0 131 0;
#X connect 140 0 137 0;
#X connect 141 0 135 0;
#X connect 143 0 47 0;
#X connect 144 0 143 0;
#X connect 145 0 46 0;
#X connect 146 0 145 0;
#X connect 147 0 146 0;
#X connect 148 0 144 0;
#X connect 149 0 49 0;
#X connect 150 0 149 0;
#X connect 151 0 48 0;
#X connect 152 0 151 0;
#X connect 153 0 152 0;
#X connect 154 0 150 0;
#X connect 155 0 59 0;
#X connect 156 0 155 0;
#X connect 157 0 58 0;
#X connect 158 0 157 0;
#X connect 159 0 158 0;
#X connect 160 0 156 0;
#X connect 161 0 61 0;
#X connect 162 0 161 0;
#X connect 163 0 60 0;
#X connect 164 0 163 0;
#X connect 165 0 162 0;
#X connect 166 0 164 0;
#X connect 167 0 63 0;
#X connect 168 0 167 0;
#X connect 169 0 62 0;
#X connect 170 0 169 0;
#X connect 171 0 170 0;
#X connect 172 0 168 0;
#X connect 174 0 65 0;
#X connect 175 0 174 0;
#X connect 176 0 64 0;
#X connect 177 0 176 0;
#X connect 178 0 177 0;
#X connect 179 0 175 0;
#X connect 180 0 67 0;
#X connect 181 0 180 0;
#X connect 182 0 66 0;
#X connect 183 0 182 0;
#X connect 184 0 183 0;
#X connect 185 0 181 0;
#X connect 187 0 186 0;
#X connect 188 0 186 0;
#X connect 189 0 186 0;
#X connect 190 0 188 0;
#X connect 191 0 276 0;
#X connect 191 0 190 0;
#X connect 193 0 192 0;
#X connect 194 0 192 0;
#X connect 195 0 192 0;
#X connect 196 0 194 0;
#X connect 197 0 198 0;
#X connect 197 0 196 0;
#X connect 198 0 192 0;
#X connect 200 0 199 0;
#X connect 201 0 199 0;
#X connect 202 0 199 0;
#X connect 203 0 201 0;
#X connect 204 0 205 0;
#X connect 204 0 203 0;
#X connect 205 0 199 0;
#X connect 207 0 206 0;
#X connect 208 0 206 0;
#X connect 209 0 206 0;
#X connect 210 0 208 0;
#X connect 211 0 212 0;
#X connect 211 0 210 0;
#X connect 212 0 206 0;
#X connect 214 0 213 0;
#X connect 215 0 213 0;
#X connect 216 0 213 0;
#X connect 217 0 215 0;
#X connect 218 0 219 0;
#X connect 218 0 217 0;
#X connect 219 0 213 0;
#X connect 221 0 220 0;
#X connect 222 0 220 0;
#X connect 223 0 220 0;
#X connect 224 0 222 0;
#X connect 225 0 226 0;
#X connect 225 0 224 0;
#X connect 226 0 220 0;
#X connect 228 0 227 0;
#X connect 229 0 227 0;
#X connect 230 0 227 0;
#X connect 231 0 229 0;
#X connect 232 0 233 0;
#X connect 232 0 231 0;
#X connect 233 0 227 0;
#X connect 235 0 234 0;
#X connect 236 0 234 0;
#X connect 237 0 234 0;
#X connect 238 0 236 0;
#X connect 239 0 240 0;
#X connect 239 0 238 0;
#X connect 240 0 234 0;
#X connect 242 0 241 0;
#X connect 243 0 241 0;
#X connect 244 0 241 0;
#X connect 245 0 243 0;
#X connect 246 0 247 0;
#X connect 246 0 245 0;
#X connect 247 0 241 0;
#X connect 249 0 248 0;
#X connect 250 0 248 0;
#X connect 251 0 248 0;
#X connect 252 0 250 0;
#X connect 253 0 254 0;
#X connect 253 0 252 0;
#X connect 254 0 248 0;
#X connect 256 0 255 0;
#X connect 257 0 255 0;
#X connect 258 0 255 0;
#X connect 259 0 257 0;
#X connect 260 0 261 0;
#X connect 260 0 259 0;
#X connect 261 0 255 0;
#X connect 263 0 262 0;
#X connect 264 0 262 0;
#X connect 265 0 262 0;
#X connect 266 0 264 0;
#X connect 267 0 268 0;
#X connect 267 0 266 0;
#X connect 268 0 262 0;
#X connect 270 0 269 0;
#X connect 271 0 269 0;
#X connect 272 0 269 0;
#X connect 273 0 271 0;
#X connect 274 0 275 0;
#X connect 274 0 273 0;
#X connect 275 0 269 0;
#X connect 276 0 186 0;
#X connect 278 0 277 0;
#X connect 279 0 277 0;
#X connect 280 0 277 0;
#X connect 281 0 279 0;
#X connect 282 0 283 0;
#X connect 282 0 281 0;
#X connect 283 0 277 0;
#X connect 284 0 193 0;
#X connect 285 0 200 0;
#X connect 286 0 207 0;
#X connect 287 0 214 0;
#X connect 288 0 221 0;
#X connect 289 0 228 0;
#X connect 290 0 235 0;
#X connect 291 0 242 0;
#X connect 292 0 249 0;
#X connect 293 0 256 0;
#X connect 294 0 263 0;
#X connect 295 0 270 0;
#X connect 296 0 187 0;
#X connect 297 0 278 0;
#X connect 298 0 195 0;
#X connect 299 0 202 0;
#X connect 300 0 209 0;
#X connect 301 0 216 0;
#X connect 302 0 223 0;
#X connect 303 0 230 0;
#X connect 304 0 237 0;
#X connect 305 0 244 0;
#X connect 306 0 251 0;
#X connect 307 0 258 0;
#X connect 308 0 265 0;
#X connect 309 0 272 0;
#X connect 310 0 189 0;
#X connect 311 0 280 0;
#X connect 313 0 194 0;
#X connect 314 0 201 0;
#X connect 315 0 208 0;
#X connect 316 0 6 1;
#X connect 317 0 33 1;
#X connect 318 0 37 1;
#X connect 319 0 43 1;
#X connect 320 0 53 1;
#X connect 321 0 97 1;
#X connect 322 0 69 1;
#X connect 323 0 73 1;
#X connect 324 0 77 1;
#X connect 325 0 81 1;
#X connect 326 0 85 1;
#X connect 327 0 89 1;
#X connect 328 0 93 1;
#X connect 329 0 215 0;
#X connect 330 0 222 0;
#X connect 331 0 229 0;
#X connect 332 0 236 0;
#X connect 333 0 243 0;
#X connect 334 0 250 0;
#X connect 335 0 257 0;
#X connect 336 0 264 0;
#X connect 337 0 271 0;
#X connect 338 0 188 0;
#X connect 339 0 279 0;
#X connect 340 0 29 1;
