#N canvas -8 -8 1920 997 12;
#X obj 21 20 tgl 15 0 empty empty empty 17 7 0 10 -262144 -1 -1 0 1
;
#X msg 21 44 \; pd dsp \$1;
#N canvas -1928 79 1920 997 Activision 0;
#X obj 201 337 phasor~;
#X obj 228 400 *~;
#X obj 212 161 soundfiler;
#X floatatom 212 187 15 0 1e+009 0 - - -;
#X obj 239 493 *~;
#X floatatom 254 472 5 0 1 0 - - -;
#X obj 204 216 expr 44100/$f1;
#X floatatom 288 255 5 0 0 0 - - -;
#X obj 319 318 * 1;
#X obj 330 288 bng 15 250 50 0 empty empty empty 17 7 0 10 -262144
-1 -1;
#X obj 368 244 inlet;
#X obj 386 453 inlet;
#X obj 239 518 outlet~;
#X floatatom 368 270 5 0 0 0 - - -;
#X text 387 435 volume;
#X obj 213 103 loadbang;
#N canvas 212 36 450 300 (subpatch) 0;
#X array soundData1 4.34381e+006 float 0;
#X coords 0 1 4.34381e+006 -1 300 100 1;
#X restore 670 227 graph;
#X msg 213 132 read -resize PublisherSongs/Activision.wav soundData1
;
#X obj 238 445 tabread4~ soundData1;
#X obj 446 633 r Min_Max_Sales_Activision;
#X obj 447 656 select -1 1;
#N canvas 212 36 450 300 (subpatch) 0;
#X array Activision_Min 289228 float 0;
#X coords 0 1 289227 -1 300 100 1 0 0;
#X restore 709 711 graph;
#X obj 713 665 soundfiler;
#X obj 714 607 loadbang;
#X obj 447 682 bng 15 250 50 0 empty empty empty 17 7 0 10 -262144
-1 -1;
#X obj 484 683 bng 15 250 50 0 empty empty empty 17 7 0 10 -262144
-1 -1;
#X obj 352 716 tabplay~ Activision_Min;
#X obj 454 761 dac~;
#X obj 528 716 tabplay~ Activision_Max;
#N canvas 212 36 450 300 (subpatch) 0;
#X array Activision_Max 144893 float 0;
#X coords 0 1 144892 -1 300 100 1 0 0;
#X restore 1162 708 graph;
#X obj 1166 662 soundfiler;
#X obj 1167 604 loadbang;
#X msg 714 635 read -resize MinSongs/Activision.wav Activision_Min
;
#X msg 1167 632 read -resize MaxSongs/Activision.wav Activision_Max
;
#X connect 0 0 1 0;
#X connect 1 0 18 0;
#X connect 2 0 3 0;
#X connect 3 0 1 1;
#X connect 3 0 6 0;
#X connect 4 0 12 0;
#X connect 5 0 4 1;
#X connect 6 0 7 0;
#X connect 7 0 8 0;
#X connect 8 0 0 0;
#X connect 9 0 8 0;
#X connect 10 0 13 0;
#X connect 11 0 5 0;
#X connect 13 0 9 0;
#X connect 13 0 8 1;
#X connect 15 0 17 0;
#X connect 17 0 2 0;
#X connect 18 0 4 0;
#X connect 19 0 20 0;
#X connect 20 0 24 0;
#X connect 20 1 25 0;
#X connect 23 0 32 0;
#X connect 24 0 26 0;
#X connect 25 0 28 0;
#X connect 26 0 27 0;
#X connect 28 0 27 1;
#X connect 31 0 33 0;
#X connect 32 0 22 0;
#X connect 33 0 30 0;
#X restore 103 426 pd Activision;
#X obj 106 397 hsl 128 15 0.5 1.5 0 0 empty empty playback_speed -2
-8 0 10 -262144 -1 -1 11781 1;
#X obj 68 295 vsl 15 128 0 0.5 0 0 empty empty volume 0 -9 0 10 -262144
-1 -1 2124 1;
#X obj 103 537 dac~;
#X obj 104 506 *~;
#X msg 149 480 0;
#X msg 186 481 1;
#X obj 147 456 loadbang;
#N canvas -1928 79 1920 997 Atari 0;
#X obj 216 338 phasor~;
#X obj 243 401 *~;
#X obj 212 161 soundfiler;
#X floatatom 212 187 15 0 1e+009 0 - - -;
#X obj 254 517 *~;
#X floatatom 269 496 5 0 1 0 - - -;
#X obj 204 216 expr 44100/$f1;
#X floatatom 288 255 5 0 0 0 - - -;
#X obj 319 318 * 1;
#X obj 330 288 bng 15 250 50 0 empty empty empty 17 7 0 10 -262144
-1 -1;
#X obj 253 552 outlet~;
#X floatatom 366 270 5 0 0 0 - - -;
#X obj 268 470 inlet;
#X obj 366 246 inlet;
#N canvas 212 36 450 300 (subpatch) 0;
#X array soundData2 4.2199e+006 float 0;
#X coords 0 1 4.2199e+006 -1 300 100 1;
#X restore 625 231 graph;
#X msg 213 133 read -resize PublisherSongs/Atari.wav soundData2;
#X obj 253 446 tabread4~ soundData2;
#X obj 213 103 loadbang;
#X obj 447 656 select -1 1;
#N canvas 212 36 450 300 (subpatch) 0;
#X array Atari_Min 134862 float 0;
#X coords 0 1 134861 -1 300 100 1 0 0;
#X restore 709 711 graph;
#X obj 713 665 soundfiler;
#X obj 714 607 loadbang;
#X obj 447 682 bng 15 250 50 0 empty empty empty 17 7 0 10 -262144
-1 -1;
#X obj 484 683 bng 15 250 50 0 empty empty empty 17 7 0 10 -262144
-1 -1;
#X obj 454 761 dac~;
#N canvas 212 36 450 300 (subpatch) 0;
#X array Atari_Max 57958 float 0;
#X coords 0 1 57957 -1 300 100 1 0 0;
#X restore 1162 708 graph;
#X obj 1166 662 soundfiler;
#X obj 1167 604 loadbang;
#X obj 446 633 r Min_Max_Sales_Atari;
#X obj 352 715 tabplay~ Atari_Min;
#X obj 528 716 tabplay~ Atari_Max;
#X msg 714 635 read -resize MinSongs/Atari.wav Atari_Min;
#X msg 1167 632 read -resize MaxSongs/Atari.wav Atari_Max;
#X connect 0 0 1 0;
#X connect 1 0 16 0;
#X connect 2 0 3 0;
#X connect 3 0 1 1;
#X connect 3 0 6 0;
#X connect 4 0 10 0;
#X connect 5 0 4 1;
#X connect 6 0 7 0;
#X connect 7 0 8 0;
#X connect 8 0 0 0;
#X connect 9 0 8 0;
#X connect 11 0 9 0;
#X connect 11 0 8 1;
#X connect 12 0 5 0;
#X connect 13 0 11 0;
#X connect 15 0 2 0;
#X connect 16 0 4 0;
#X connect 17 0 15 0;
#X connect 18 0 22 0;
#X connect 18 1 23 0;
#X connect 21 0 31 0;
#X connect 22 0 29 0;
#X connect 23 0 30 0;
#X connect 27 0 32 0;
#X connect 28 0 18 0;
#X connect 29 0 24 0;
#X connect 30 0 24 1;
#X connect 31 0 20 0;
#X connect 32 0 26 0;
#X restore 292 427 pd Atari;
#N canvas 223 321 1091 536 Bethesda 0;
#X obj 216 338 phasor~;
#X obj 243 401 *~;
#X obj 212 161 soundfiler;
#X floatatom 212 187 15 0 1e+009 0 - - -;
#X obj 254 517 *~;
#X floatatom 269 496 5 0 1 0 - - -;
#X obj 204 216 expr 44100/$f1;
#X floatatom 288 255 5 0 0 0 - - -;
#X obj 319 318 * 1;
#X obj 330 288 bng 15 250 50 0 empty empty empty 17 7 0 10 -262144
-1 -1;
#X obj 213 103 loadbang;
#X obj 253 552 outlet~;
#X obj 362 258 inlet;
#X obj 288 455 inlet;
#X msg 213 133 read -resize PublisherSongs/Bethesda.wav soundData3
;
#X obj 253 446 tabread4~ soundData3;
#N canvas 212 36 450 300 (subpatch) 0;
#X array soundData3 1.03987e+007 float 0;
#X coords 0 1 1.03987e+007 -1 300 100 1 0 0;
#X restore 625 231 graph;
#X connect 0 0 1 0;
#X connect 1 0 15 0;
#X connect 2 0 3 0;
#X connect 3 0 1 1;
#X connect 3 0 6 0;
#X connect 4 0 11 0;
#X connect 5 0 4 1;
#X connect 6 0 7 0;
#X connect 7 0 8 0;
#X connect 8 0 0 0;
#X connect 9 0 8 0;
#X connect 10 0 14 0;
#X connect 12 0 9 0;
#X connect 12 0 8 1;
#X connect 13 0 5 0;
#X connect 14 0 2 0;
#X connect 15 0 4 0;
#X restore 548 421 pd Bethesda;
#N canvas -1208 388 1062 536 Capcom 0;
#X obj 216 338 phasor~;
#X obj 243 401 *~;
#X obj 212 161 soundfiler;
#X floatatom 212 187 15 0 1e+009 0 - - -;
#X obj 254 517 *~;
#X floatatom 269 496 5 0 1 0 - - -;
#X obj 204 216 expr 44100/$f1;
#X floatatom 288 255 5 0 0 0 - - -;
#X obj 319 318 * 1;
#X obj 330 288 bng 15 250 50 0 empty empty empty 17 7 0 10 -262144
-1 -1;
#X obj 253 446 tabread4~ soundData;
#X obj 213 103 loadbang;
#X obj 253 552 outlet~;
#X obj 268 470 inlet;
#N canvas 212 36 450 300 (subpatch) 0;
#X array soundData4 1.02902e+007 float 0;
#X coords 0 1 1.02902e+007 -1 300 100 1 0 0;
#X restore 625 232 graph;
#X msg 213 133 read -resize PublisherSongs/Capcom.wav soundData4;
#X floatatom 359 270 5 0 0 0 - - -;
#X obj 359 246 inlet;
#X connect 0 0 1 0;
#X connect 1 0 10 0;
#X connect 2 0 3 0;
#X connect 3 0 1 1;
#X connect 3 0 6 0;
#X connect 4 0 12 0;
#X connect 5 0 4 1;
#X connect 6 0 7 0;
#X connect 7 0 8 0;
#X connect 8 0 0 0;
#X connect 9 0 8 0;
#X connect 10 0 4 0;
#X connect 11 0 15 0;
#X connect 13 0 5 0;
#X connect 15 0 2 0;
#X connect 16 0 9 0;
#X connect 16 0 8 1;
#X connect 17 0 16 0;
#X restore 799 408 pd Capcom;
#N canvas 590 295 1078 536 EA 0;
#X obj 216 338 phasor~;
#X obj 243 401 *~;
#X obj 212 161 soundfiler;
#X floatatom 212 187 15 0 1e+009 0 - - -;
#X obj 254 517 *~;
#X floatatom 269 496 5 0 1 0 - - -;
#X obj 204 216 expr 44100/$f1;
#X floatatom 288 255 5 0 0 0 - - -;
#X obj 319 318 * 1;
#X obj 330 288 bng 15 250 50 0 empty empty empty 17 7 0 10 -262144
-1 -1;
#X obj 243 445 tabread4~ soundData;
#X obj 213 103 loadbang;
#X obj 253 552 outlet~;
#X obj 349 225 inlet;
#X obj 269 469 inlet;
#X msg 213 133 read -resize PublisherSongs/EA.wav soundData5;
#N canvas 212 36 450 300 (subpatch) 0;
#X array soundData5 5.0729e+006 float 0;
#X coords 0 1 5.0729e+006 -1 300 100 1 0 0;
#X restore 613 218 graph;
#X floatatom 347 256 5 0 0 0 - - -;
#X connect 0 0 1 0;
#X connect 1 0 10 0;
#X connect 2 0 3 0;
#X connect 3 0 1 1;
#X connect 3 0 6 0;
#X connect 4 0 12 0;
#X connect 5 0 4 1;
#X connect 6 0 7 0;
#X connect 7 0 8 0;
#X connect 8 0 0 0;
#X connect 9 0 8 0;
#X connect 10 0 4 0;
#X connect 11 0 15 0;
#X connect 13 0 17 0;
#X connect 14 0 5 0;
#X connect 15 0 2 0;
#X connect 17 0 9 0;
#X connect 17 0 8 1;
#X restore 1037 418 pd EA;
#N canvas 288 397 1271 536 Konami 0;
#X obj 216 338 phasor~;
#X obj 243 401 *~;
#X obj 212 161 soundfiler;
#X floatatom 212 187 15 0 1e+009 0 - - -;
#X obj 254 517 *~;
#X floatatom 269 496 5 0 1 0 - - -;
#X obj 204 216 expr 44100/$f1;
#X floatatom 288 255 5 0 0 0 - - -;
#X obj 319 318 * 1;
#X obj 330 288 bng 15 250 50 0 empty empty empty 17 7 0 10 -262144
-1 -1;
#X obj 253 446 tabread4~ soundData;
#X obj 213 103 loadbang;
#X obj 253 552 outlet~;
#X obj 359 261 inlet;
#X obj 270 469 inlet;
#X msg 213 133 read -resize PublisherSongs/Konami.wav soundData6;
#N canvas 212 36 450 300 (subpatch) 0;
#X array soundData6 7.21306e+006 float 0;
#X coords 0 1 7.21306e+006 -1 300 100 1 0 0;
#X restore 613 218 graph;
#X connect 0 0 1 0;
#X connect 1 0 10 0;
#X connect 2 0 3 0;
#X connect 3 0 1 1;
#X connect 3 0 6 0;
#X connect 4 0 12 0;
#X connect 5 0 4 1;
#X connect 6 0 7 0;
#X connect 7 0 8 0;
#X connect 8 0 0 0;
#X connect 9 0 8 0;
#X connect 10 0 4 0;
#X connect 11 0 15 0;
#X connect 13 0 9 0;
#X connect 13 0 8 1;
#X connect 14 0 5 0;
#X connect 15 0 2 0;
#X restore 1285 430 pd Konami;
#N canvas 58 333 1243 536 Microsoft 0;
#X obj 216 338 phasor~;
#X obj 243 401 *~;
#X obj 212 161 soundfiler;
#X floatatom 212 187 15 0 1e+009 0 - - -;
#X obj 254 517 *~;
#X floatatom 269 496 5 0 1 0 - - -;
#X obj 204 216 expr 44100/$f1;
#X floatatom 288 255 5 0 0 0 - - -;
#X obj 319 318 * 1;
#X obj 330 288 bng 15 250 50 0 empty empty empty 17 7 0 10 -262144
-1 -1;
#X obj 253 446 tabread4~ soundData;
#X obj 213 103 loadbang;
#X obj 253 552 outlet~;
#X obj 271 471 inlet;
#X obj 358 267 inlet;
#X msg 213 133 read -resize PublisherSongs/Microsoft.wav soundData7
;
#N canvas 212 36 450 300 (subpatch) 0;
#X array soundData7 7.99949e+006 float 0;
#X coords 0 1 7.99949e+006 -1 300 100 1 0 0;
#X restore 638 207 graph;
#X connect 0 0 1 0;
#X connect 1 0 10 0;
#X connect 2 0 3 0;
#X connect 3 0 1 1;
#X connect 3 0 6 0;
#X connect 4 0 12 0;
#X connect 5 0 4 1;
#X connect 6 0 7 0;
#X connect 7 0 8 0;
#X connect 8 0 0 0;
#X connect 9 0 8 0;
#X connect 10 0 4 0;
#X connect 11 0 15 0;
#X connect 13 0 5 0;
#X connect 14 0 9 0;
#X connect 14 0 8 1;
#X connect 15 0 2 0;
#X restore 1547 431 pd Microsoft;
#N canvas 203 316 959 632 NamcoBandai 0;
#X obj 84 284 phasor~;
#X obj 111 347 *~;
#X obj 80 107 soundfiler;
#X floatatom 80 133 15 0 1e+009 0 - - -;
#X obj 122 463 *~;
#X floatatom 137 442 5 0 1 0 - - -;
#X obj 72 162 expr 44100/$f1;
#X floatatom 156 201 5 0 0 0 - - -;
#X obj 187 264 * 1;
#X obj 198 234 bng 15 250 50 0 empty empty empty 17 7 0 10 -262144
-1 -1;
#X obj 121 392 tabread4~ soundData;
#X obj 81 49 loadbang;
#X obj 121 498 outlet~;
#X obj 139 417 inlet;
#X obj 226 213 inlet;
#N canvas 212 36 450 300 (subpatch) 0;
#X array soundData8 2.68698e+006 float 0;
#X coords 0 1 2.68698e+006 -1 300 100 1 0 0;
#X restore 506 153 graph;
#X msg 81 79 read -resize PublisherSongs/NamcoBandai.wav soundData8
;
#X connect 0 0 1 0;
#X connect 1 0 10 0;
#X connect 2 0 3 0;
#X connect 3 0 1 1;
#X connect 3 0 6 0;
#X connect 4 0 12 0;
#X connect 5 0 4 1;
#X connect 6 0 7 0;
#X connect 7 0 8 0;
#X connect 8 0 0 0;
#X connect 9 0 8 0;
#X connect 10 0 4 0;
#X connect 11 0 16 0;
#X connect 13 0 5 0;
#X connect 14 0 9 0;
#X connect 14 0 8 1;
#X connect 16 0 2 0;
#X restore 100 760 pd NamcoBandai;
#N canvas -8 -8 1920 997 Nintendo 0;
#X obj 238 383 phasor~;
#X obj 265 446 *~;
#X obj 234 206 soundfiler;
#X floatatom 234 232 15 0 1e+009 0 - - -;
#X obj 276 562 *~;
#X floatatom 291 541 5 0 1 0 - - -;
#X obj 226 261 expr 44100/$f1;
#X floatatom 310 300 5 0 0 0 - - -;
#X obj 341 363 * 1;
#X obj 352 333 bng 15 250 50 0 empty empty empty 17 7 0 10 -262144
-1 -1;
#X obj 275 491 tabread4~ soundData;
#X obj 235 148 loadbang;
#X obj 275 597 outlet~;
#X obj 293 516 inlet;
#X obj 380 312 inlet;
#N canvas 212 36 450 300 (subpatch) 0;
#X array soundData9 3.62803e+006 float 0;
#X coords 0 1 3.62803e+006 -1 300 100 1 0 0;
#X restore 660 252 graph;
#X msg 235 178 read -resize PublisherSongs/Nintendo.wav soundData9
;
#X connect 0 0 1 0;
#X connect 1 0 10 0;
#X connect 2 0 3 0;
#X connect 3 0 1 1;
#X connect 3 0 6 0;
#X connect 4 0 12 0;
#X connect 5 0 4 1;
#X connect 6 0 7 0;
#X connect 7 0 8 0;
#X connect 8 0 0 0;
#X connect 9 0 8 0;
#X connect 10 0 4 0;
#X connect 11 0 16 0;
#X connect 13 0 5 0;
#X connect 14 0 9 0;
#X connect 14 0 8 1;
#X connect 16 0 2 0;
#X restore 331 748 pd Nintendo;
#N canvas -8 -8 1920 997 Sega 0;
#X obj 359 481 phasor~;
#X obj 386 544 *~;
#X obj 355 304 soundfiler;
#X floatatom 355 330 15 0 1e+009 0 - - -;
#X obj 397 660 *~;
#X floatatom 412 639 5 0 1 0 - - -;
#X obj 347 359 expr 44100/$f1;
#X floatatom 431 398 5 0 0 0 - - -;
#X obj 462 461 * 1;
#X obj 473 431 bng 15 250 50 0 empty empty empty 17 7 0 10 -262144
-1 -1;
#X obj 396 589 tabread4~ soundData;
#X obj 356 246 loadbang;
#X obj 396 695 outlet~;
#X obj 414 614 inlet;
#X obj 501 410 inlet;
#N canvas 212 36 450 300 (subpatch) 0;
#X array soundData10 6.2423e+006 float 0;
#X coords 0 1 6.2423e+006 -1 300 100 1 0 0;
#X restore 781 350 graph;
#X msg 357 276 read -resize PublisherSongs/Sega.wav soundData10;
#X connect 0 0 1 0;
#X connect 1 0 10 0;
#X connect 2 0 3 0;
#X connect 3 0 1 1;
#X connect 3 0 6 0;
#X connect 4 0 12 0;
#X connect 5 0 4 1;
#X connect 6 0 7 0;
#X connect 7 0 8 0;
#X connect 8 0 0 0;
#X connect 9 0 8 0;
#X connect 10 0 4 0;
#X connect 11 0 16 0;
#X connect 13 0 5 0;
#X connect 14 0 9 0;
#X connect 14 0 8 1;
#X connect 16 0 2 0;
#X restore 515 745 pd Sega;
#N canvas -8 -8 1920 997 Sony 0;
#X obj 136 409 phasor~;
#X obj 163 472 *~;
#X obj 132 232 soundfiler;
#X floatatom 132 258 15 0 1e+009 0 - - -;
#X obj 174 588 *~;
#X floatatom 189 567 5 0 1 0 - - -;
#X obj 124 287 expr 44100/$f1;
#X floatatom 208 326 5 0 0 0 - - -;
#X obj 239 389 * 1;
#X obj 250 359 bng 15 250 50 0 empty empty empty 17 7 0 10 -262144
-1 -1;
#X obj 173 517 tabread4~ soundData;
#X obj 133 174 loadbang;
#X obj 173 623 outlet~;
#X obj 191 542 inlet;
#X obj 278 338 inlet;
#N canvas 212 36 450 300 (subpatch) 0;
#X array soundData11 8.38144e+006 float 0;
#X coords 0 1 8.38144e+006 -1 300 100 1 0 0;
#X restore 558 278 graph;
#X msg 133 204 read -resize PublisherSongs/Sony.wav soundData11;
#X connect 0 0 1 0;
#X connect 1 0 10 0;
#X connect 2 0 3 0;
#X connect 3 0 1 1;
#X connect 3 0 6 0;
#X connect 4 0 12 0;
#X connect 5 0 4 1;
#X connect 6 0 7 0;
#X connect 7 0 8 0;
#X connect 8 0 0 0;
#X connect 9 0 8 0;
#X connect 10 0 4 0;
#X connect 11 0 16 0;
#X connect 13 0 5 0;
#X connect 14 0 9 0;
#X connect 14 0 8 1;
#X connect 16 0 2 0;
#X restore 705 744 pd Sony;
#N canvas -8 -8 1920 997 SquareEnix 0;
#X obj 153 378 phasor~;
#X obj 180 441 *~;
#X obj 149 201 soundfiler;
#X floatatom 149 227 15 0 1e+009 0 - - -;
#X obj 191 557 *~;
#X floatatom 206 536 5 0 1 0 - - -;
#X obj 141 256 expr 44100/$f1;
#X floatatom 225 295 5 0 0 0 - - -;
#X obj 256 358 * 1;
#X obj 267 328 bng 15 250 50 0 empty empty empty 17 7 0 10 -262144
-1 -1;
#X obj 190 486 tabread4~ soundData;
#X obj 150 143 loadbang;
#X obj 190 592 outlet~;
#X obj 208 511 inlet;
#X obj 295 307 inlet;
#N canvas 212 36 450 300 (subpatch) 0;
#X array soundData12 6.88333e+006 float 0;
#X coords 0 1 6.88333e+006 -1 300 100 1 0 0;
#X restore 575 247 graph;
#X msg 150 173 read -resize PublisherSongs/SquareEnix.wav soundData12
;
#X connect 0 0 1 0;
#X connect 1 0 10 0;
#X connect 2 0 3 0;
#X connect 3 0 1 1;
#X connect 3 0 6 0;
#X connect 4 0 12 0;
#X connect 5 0 4 1;
#X connect 6 0 7 0;
#X connect 7 0 8 0;
#X connect 8 0 0 0;
#X connect 9 0 8 0;
#X connect 10 0 4 0;
#X connect 11 0 16 0;
#X connect 13 0 5 0;
#X connect 14 0 9 0;
#X connect 14 0 8 1;
#X connect 16 0 2 0;
#X restore 909 749 pd SquareEnix;
#N canvas -8 -8 1920 997 TakeTwo 0;
#X obj 133 330 phasor~;
#X obj 160 393 *~;
#X obj 129 153 soundfiler;
#X floatatom 129 179 15 0 1e+009 0 - - -;
#X obj 171 509 *~;
#X floatatom 186 488 5 0 1 0 - - -;
#X obj 121 208 expr 44100/$f1;
#X floatatom 205 247 5 0 0 0 - - -;
#X obj 236 310 * 1;
#X obj 247 280 bng 15 250 50 0 empty empty empty 17 7 0 10 -262144
-1 -1;
#X obj 170 438 tabread4~ soundData;
#X obj 130 95 loadbang;
#X obj 170 544 outlet~;
#X obj 188 463 inlet;
#X obj 275 259 inlet;
#N canvas 212 36 450 300 (subpatch) 0;
#X array soundData13 1.62847e+007 float 0;
#X coords 0 1 1.62847e+007 -1 300 100 1 0 0;
#X restore 555 199 graph;
#X msg 130 125 read -resize PublisherSongs/TakeTwo.wav soundData13
;
#X connect 0 0 1 0;
#X connect 1 0 10 0;
#X connect 2 0 3 0;
#X connect 3 0 1 1;
#X connect 3 0 6 0;
#X connect 4 0 12 0;
#X connect 5 0 4 1;
#X connect 6 0 7 0;
#X connect 7 0 8 0;
#X connect 8 0 0 0;
#X connect 9 0 8 0;
#X connect 10 0 4 0;
#X connect 11 0 16 0;
#X connect 13 0 5 0;
#X connect 14 0 9 0;
#X connect 14 0 8 1;
#X connect 16 0 2 0;
#X restore 1103 741 pd TakeTwo;
#N canvas -1928 79 1920 997 Ubisoft 0;
#X obj 84 284 phasor~;
#X obj 111 347 *~;
#X obj 80 107 soundfiler;
#X floatatom 80 133 15 0 1e+009 0 - - -;
#X obj 122 463 *~;
#X floatatom 137 442 5 0 1 0 - - -;
#X obj 72 162 expr 44100/$f1;
#X floatatom 156 201 5 0 0 0 - - -;
#X obj 187 264 * 1;
#X obj 198 234 bng 15 250 50 0 empty empty empty 17 7 0 10 -262144
-1 -1;
#X obj 121 392 tabread4~ soundData;
#X obj 81 49 loadbang;
#X obj 121 498 outlet~;
#X obj 139 417 inlet;
#X obj 226 213 inlet;
#N canvas 212 36 450 300 (subpatch) 0;
#X array soundData14 1.05687e+007 float 0;
#X coords 0 1 1.05687e+007 -1 300 100 1 0 0;
#X restore 506 153 graph;
#X msg 81 79 read -resize PublisherSongs/Ubisoft.wav soundData14;
#X connect 0 0 1 0;
#X connect 1 0 10 0;
#X connect 2 0 3 0;
#X connect 3 0 1 1;
#X connect 3 0 6 0;
#X connect 4 0 12 0;
#X connect 5 0 4 1;
#X connect 6 0 7 0;
#X connect 7 0 8 0;
#X connect 8 0 0 0;
#X connect 9 0 8 0;
#X connect 10 0 4 0;
#X connect 11 0 16 0;
#X connect 13 0 5 0;
#X connect 14 0 9 0;
#X connect 14 0 8 1;
#X connect 16 0 2 0;
#X restore 1291 746 pd Ubisoft;
#X obj 295 397 hsl 128 15 0.5 1.5 0 0 empty empty playback_speed -2
-8 0 10 -262144 -1 -1 0 1;
#X obj 269 294 vsl 15 128 0 2 0 0 empty empty volume 0 -9 0 10 -262144
-1 -1 0 1;
#X obj 551 391 hsl 128 15 0.5 1.5 0 0 empty empty playback_speed -2
-8 0 10 -262144 -1 -1 0 1;
#X obj 527 290 vsl 15 128 0 0.5 0 0 empty empty volume 0 -9 0 10 -262144
-1 -1 0 1;
#X obj 803 378 hsl 128 15 0.5 1.5 0 0 empty empty playback_speed -2
-8 0 10 -262144 -1 -1 0 1;
#X obj 775 277 vsl 15 128 0 0.5 0 0 empty empty volume 0 -9 0 10 -262144
-1 -1 0 1;
#X obj 292 536 dac~;
#X obj 293 505 *~;
#X msg 336 486 0;
#X msg 375 487 1;
#X obj 336 460 loadbang;
#X obj 546 539 dac~;
#X obj 547 508 *~;
#X msg 590 489 0;
#X msg 629 490 1;
#X obj 590 463 loadbang;
#X obj 795 519 dac~;
#X obj 796 488 *~;
#X msg 839 469 0;
#X msg 878 470 1;
#X obj 839 443 loadbang;
#X obj 1040 382 hsl 128 15 0.5 1.5 0 0 empty empty playback_speed -2
-8 0 10 -262144 -1 -1 0 1;
#X obj 1006 275 vsl 15 128 0 0.5 0 0 empty empty volume 0 -9 0 10 -262144
-1 -1 0 1;
#X obj 1042 517 dac~;
#X obj 1043 486 *~;
#X msg 1086 467 0;
#X msg 1125 468 1;
#X obj 1086 441 loadbang;
#X obj 124 709 hsl 128 15 0.5 1.5 0 0 empty empty playback_speed -2
-8 0 10 -262144 -1 -1 0 1;
#X obj 90 602 vsl 15 128 0 0.5 0 0 empty empty volume 0 -9 0 10 -262144
-1 -1 0 1;
#X obj 334 709 hsl 128 15 0.5 1.5 0 0 empty empty playback_speed -2
-8 0 10 -262144 -1 -1 0 1;
#X obj 300 602 vsl 15 128 0 0.5 0 0 empty empty volume 0 -9 0 10 -262144
-1 -1 0 1;
#X obj 1294 390 hsl 128 15 0.5 1.5 0 0 empty empty playback_speed -2
-8 0 10 -262144 -1 -1 0 1;
#X obj 1260 283 vsl 15 128 0 0.5 0 0 empty empty volume 0 -9 0 10 -262144
-1 -1 0 1;
#X obj 1321 525 dac~;
#X obj 1322 494 *~;
#X msg 1365 475 0;
#X msg 1404 476 1;
#X obj 1365 449 loadbang;
#X obj 1565 387 hsl 128 15 0.5 1.5 0 0 empty empty playback_speed -2
-8 0 10 -262144 -1 -1 0 1;
#X obj 1531 280 vsl 15 128 0 0.5 0 0 empty empty volume 0 -9 0 10 -262144
-1 -1 0 1;
#X obj 529 717 hsl 128 15 0.5 1.5 0 0 empty empty playback_speed -2
-8 0 10 -262144 -1 -1 0 1;
#X obj 489 602 vsl 15 128 0 0.5 0 0 empty empty volume 0 -9 0 10 -262144
-1 -1 0 1;
#X obj 718 708 hsl 128 15 0.5 1.5 0 0 empty empty playback_speed -2
-8 0 10 -262144 -1 -1 0 1;
#X obj 684 601 vsl 15 128 0 0.5 0 0 empty empty volume 0 -9 0 10 -262144
-1 -1 0 1;
#X obj 920 706 hsl 128 15 0.5 1.5 0 0 empty empty playback_speed -2
-8 0 10 -262144 -1 -1 0 1;
#X obj 886 599 vsl 15 128 0 0.5 0 0 empty empty volume 0 -9 0 10 -262144
-1 -1 0 1;
#X obj 1123 700 hsl 128 15 0.5 1.5 0 0 empty empty playback_speed -2
-8 0 10 -262144 -1 -1 0 1;
#X obj 1089 593 vsl 15 128 0 0.5 0 0 empty empty volume 0 -9 0 10 -262144
-1 -1 0 1;
#X obj 1313 706 hsl 128 15 0.5 1.5 0 0 empty empty playback_speed -2
-8 0 10 -262144 -1 -1 0 1;
#X obj 1279 599 vsl 15 128 0 0.5 0 0 empty empty volume 0 -9 0 10 -262144
-1 -1 0 1;
#X obj 107 879 dac~;
#X obj 108 848 *~;
#X msg 151 829 0;
#X msg 190 830 1;
#X obj 151 803 loadbang;
#X obj 320 858 dac~;
#X obj 321 827 *~;
#X msg 364 808 0;
#X msg 403 809 1;
#X obj 364 782 loadbang;
#X obj 516 854 dac~;
#X obj 517 823 *~;
#X msg 560 804 0;
#X msg 599 805 1;
#X obj 560 778 loadbang;
#X obj 699 851 dac~;
#X obj 700 820 *~;
#X msg 743 801 0;
#X msg 782 802 1;
#X obj 743 775 loadbang;
#X obj 933 853 dac~;
#X obj 934 822 *~;
#X msg 977 803 0;
#X msg 1016 804 1;
#X obj 977 777 loadbang;
#X obj 1121 848 dac~;
#X obj 1122 817 *~;
#X msg 1165 798 0;
#X msg 1204 799 1;
#X obj 1165 772 loadbang;
#X obj 1303 852 dac~;
#X obj 1304 821 *~;
#X msg 1347 802 0;
#X msg 1386 803 1;
#X obj 1347 776 loadbang;
#X obj 1599 525 dac~;
#X obj 1600 494 *~;
#X msg 1643 475 0;
#X msg 1682 476 1;
#X obj 1643 449 loadbang;
#X obj 1330 232 qlist;
#X msg 1342 61 bang;
#X msg 1457 160 tempo \$1;
#X floatatom 1457 134 5 0 0 0 - - -;
#X msg 1331 21 read Scripts/ActivisionScript.txt;
#X obj 70 208 r Global_Sales_Activision;
#X obj 15 181 r Average_Critic_Score_Activision;
#X msg 1354 89 rewind;
#X floatatom 68 257 5 0 0 0 - - -;
#X obj 70 234 / 200;
#X floatatom 15 229 5 0 0 0 - - -;
#X obj 15 206 / 5;
#X obj 1457 81 loadbang;
#X msg 1457 106 1;
#X msg 1382 147 clear;
#X msg 1366 118 print;
#X msg 1377 187 next;
#X obj 321 211 r Global_Sales_Activision;
#X obj 266 184 r Average_Critic_Score_Activision;
#X floatatom 319 260 5 0 0 0 - - -;
#X obj 321 237 / 200;
#X floatatom 266 232 5 0 0 0 - - -;
#X obj 266 209 / 5;
#X obj 591 204 r Global_Sales_Activision;
#X obj 536 177 r Average_Critic_Score_Activision;
#X floatatom 589 253 5 0 0 0 - - -;
#X obj 591 230 / 200;
#X floatatom 536 225 5 0 0 0 - - -;
#X obj 536 202 / 5;
#X connect 0 0 1 0;
#X connect 2 0 6 0;
#X connect 3 0 2 0;
#X connect 4 0 2 1;
#X connect 6 0 5 0;
#X connect 6 0 5 1;
#X connect 7 0 6 1;
#X connect 8 0 6 1;
#X connect 9 0 7 0;
#X connect 10 0 30 0;
#X connect 11 0 35 0;
#X connect 12 0 40 0;
#X connect 13 0 47 0;
#X connect 14 0 58 0;
#X connect 15 0 110 0;
#X connect 16 0 75 0;
#X connect 17 0 80 0;
#X connect 18 0 85 0;
#X connect 19 0 90 0;
#X connect 20 0 95 0;
#X connect 21 0 100 0;
#X connect 22 0 105 0;
#X connect 23 0 10 1;
#X connect 24 0 10 0;
#X connect 25 0 11 1;
#X connect 26 0 11 0;
#X connect 27 0 12 1;
#X connect 28 0 12 0;
#X connect 30 0 29 0;
#X connect 30 0 29 1;
#X connect 31 0 30 1;
#X connect 32 0 30 1;
#X connect 33 0 31 0;
#X connect 35 0 34 0;
#X connect 35 0 34 1;
#X connect 36 0 35 1;
#X connect 37 0 35 1;
#X connect 38 0 36 0;
#X connect 40 0 39 0;
#X connect 40 0 39 1;
#X connect 41 0 40 1;
#X connect 42 0 40 1;
#X connect 43 0 41 0;
#X connect 44 0 13 1;
#X connect 45 0 13 0;
#X connect 47 0 46 0;
#X connect 47 0 46 1;
#X connect 48 0 47 1;
#X connect 49 0 47 1;
#X connect 50 0 48 0;
#X connect 51 0 16 1;
#X connect 52 0 16 0;
#X connect 53 0 17 1;
#X connect 54 0 17 0;
#X connect 55 0 14 1;
#X connect 56 0 14 0;
#X connect 58 0 57 0;
#X connect 58 0 57 1;
#X connect 59 0 58 1;
#X connect 60 0 58 1;
#X connect 61 0 59 0;
#X connect 62 0 15 1;
#X connect 63 0 15 0;
#X connect 64 0 18 1;
#X connect 65 0 18 0;
#X connect 66 0 19 1;
#X connect 67 0 19 0;
#X connect 68 0 20 1;
#X connect 69 0 20 0;
#X connect 70 0 21 1;
#X connect 71 0 21 0;
#X connect 72 0 22 1;
#X connect 73 0 22 0;
#X connect 75 0 74 0;
#X connect 75 0 74 1;
#X connect 76 0 75 1;
#X connect 77 0 75 1;
#X connect 78 0 76 0;
#X connect 80 0 79 0;
#X connect 80 0 79 1;
#X connect 81 0 80 1;
#X connect 82 0 80 1;
#X connect 83 0 81 0;
#X connect 85 0 84 0;
#X connect 85 0 84 1;
#X connect 86 0 85 1;
#X connect 87 0 85 1;
#X connect 88 0 86 0;
#X connect 90 0 89 0;
#X connect 90 0 89 1;
#X connect 91 0 90 1;
#X connect 92 0 90 1;
#X connect 93 0 91 0;
#X connect 95 0 94 0;
#X connect 95 0 94 1;
#X connect 96 0 95 1;
#X connect 97 0 95 1;
#X connect 98 0 96 0;
#X connect 100 0 99 0;
#X connect 100 0 99 1;
#X connect 101 0 100 1;
#X connect 102 0 100 1;
#X connect 103 0 101 0;
#X connect 105 0 104 0;
#X connect 105 0 104 1;
#X connect 106 0 105 1;
#X connect 107 0 105 1;
#X connect 108 0 106 0;
#X connect 110 0 109 0;
#X connect 110 0 109 1;
#X connect 111 0 110 1;
#X connect 112 0 110 1;
#X connect 113 0 111 0;
#X connect 115 0 114 0;
#X connect 116 0 114 0;
#X connect 117 0 116 0;
#X connect 118 0 114 0;
#X connect 119 0 123 0;
#X connect 120 0 125 0;
#X connect 121 0 114 0;
#X connect 122 0 4 0;
#X connect 123 0 122 0;
#X connect 124 0 3 0;
#X connect 125 0 124 0;
#X connect 126 0 127 0;
#X connect 127 0 117 0;
#X connect 128 0 114 0;
#X connect 129 0 114 0;
#X connect 130 0 114 0;
#X connect 131 0 134 0;
#X connect 132 0 136 0;
#X connect 133 0 24 0;
#X connect 134 0 133 0;
#X connect 135 0 23 0;
#X connect 136 0 135 0;
#X connect 137 0 140 0;
#X connect 138 0 142 0;
#X connect 140 0 139 0;
#X connect 142 0 141 0;
