#N canvas -8 -8 1920 997 12;
#X obj 21 20 tgl 15 0 empty empty empty 17 7 0 10 -262144 -1 -1 1 1
;
#X msg 21 44 \; pd dsp \$1;
#N canvas 484 302 740 536 Atari 1;
#X obj 216 338 phasor~;
#X obj 243 401 *~;
#X obj 212 161 soundfiler;
#X floatatom 212 187 15 0 1e+009 0 - - -;
#X obj 254 517 *~;
#X floatatom 269 496 5 0 1 0 - - -;
#X obj 204 216 expr 44100/$f1;
#X floatatom 288 255 5 0 0 0 - - -;
#X obj 319 318 * 1;
#X obj 330 288 bng 15 250 50 0 empty empty empty 17 7 0 10 -262144
-1 -1;
#X obj 253 446 tabread4~ soundData;
#X msg 213 133 read -resize PublisherSongs/Atari.wav soundData;
#X obj 213 103 loadbang;
#X obj 253 552 outlet~;
#X obj 186 49 inlet;
#X obj 243 49 inlet;
#X obj 366 244 inlet;
#X floatatom 366 270 5 0 0 0 - - -;
#X connect 0 0 1 0;
#X connect 1 0 10 0;
#X connect 2 0 3 0;
#X connect 3 0 1 1;
#X connect 3 0 6 0;
#X connect 4 0 13 0;
#X connect 5 0 4 1;
#X connect 6 0 7 0;
#X connect 7 0 8 0;
#X connect 8 0 0 0;
#X connect 9 0 8 0;
#X connect 10 0 4 0;
#X connect 11 0 2 0;
#X connect 12 0 11 0;
#X connect 16 0 17 0;
#X connect 17 0 9 0;
#X connect 17 0 8 1;
#X restore 240 427 pd Atari;
#N canvas 870 266 740 714 Activision 1;
#X obj 201 337 phasor~;
#X obj 228 400 *~;
#X obj 212 161 soundfiler;
#X floatatom 212 187 15 0 1e+009 0 - - -;
#X obj 239 493 *~;
#X floatatom 254 472 5 0 1 0 - - -;
#X obj 204 216 expr 44100/$f1;
#X floatatom 288 255 5 0 0 0 - - -;
#X obj 319 318 * 1;
#X obj 330 288 bng 15 250 50 0 empty empty empty 17 7 0 10 -262144
-1 -1;
#X obj 238 445 tabread4~ soundData;
#X msg 212 132 read -resize PublisherSongs/Activision.wav soundData
;
#X obj 368 244 inlet;
#X obj 381 453 inlet;
#X obj 239 518 outlet~;
#X obj 213 80 loadbang;
#X floatatom 368 270 5 0 0 0 - - -;
#X text 382 435 volume;
#X connect 0 0 1 0;
#X connect 1 0 10 0;
#X connect 2 0 3 0;
#X connect 3 0 1 1;
#X connect 3 0 6 0;
#X connect 4 0 14 0;
#X connect 5 0 4 1;
#X connect 6 0 7 0;
#X connect 7 0 8 0;
#X connect 8 0 0 0;
#X connect 9 0 8 0;
#X connect 10 0 4 0;
#X connect 11 0 2 0;
#X connect 12 0 16 0;
#X connect 13 0 5 0;
#X connect 15 0 11 0;
#X connect 16 0 9 0;
#X connect 16 0 8 1;
#X restore 75 426 pd Activision;
#X text 91 168 #1 publisher;
#X text 508 170 #2 publisher;
#X obj 194 166 select 0 1 2 3 4 5 6 7 8 9 10 11 12 13;
#X obj 606 170 select 0 1 2 3 4 5 6 7 8 9 10 11 12 13;
#N canvas 716 342 740 536 Bethesda 0;
#X obj 216 338 phasor~;
#X obj 243 401 *~;
#X obj 212 161 soundfiler;
#X floatatom 212 187 15 0 1e+009 0 - - -;
#X obj 254 517 *~;
#X floatatom 269 496 5 0 1 0 - - -;
#X obj 204 216 expr 44100/$f1;
#X floatatom 288 255 5 0 0 0 - - -;
#X obj 319 318 * 1;
#X obj 330 288 bng 15 250 50 0 empty empty empty 17 7 0 10 -262144
-1 -1;
#X obj 253 446 tabread4~ soundData;
#X obj 213 103 loadbang;
#X obj 253 552 outlet~;
#X obj 186 49 inlet;
#X obj 243 49 inlet;
#X msg 213 133 read -resize PublisherSongs/Bethesda.wav soundData;
#X connect 0 0 1 0;
#X connect 1 0 10 0;
#X connect 2 0 3 0;
#X connect 3 0 1 1;
#X connect 3 0 6 0;
#X connect 4 0 12 0;
#X connect 5 0 4 1;
#X connect 6 0 7 0;
#X connect 7 0 8 0;
#X connect 8 0 0 0;
#X connect 9 0 8 0;
#X connect 10 0 4 0;
#X connect 11 0 15 0;
#X connect 15 0 2 0;
#X restore 413 421 pd Bethesda;
#N canvas 716 342 740 536 Capcom 0;
#X obj 216 338 phasor~;
#X obj 243 401 *~;
#X obj 212 161 soundfiler;
#X floatatom 212 187 15 0 1e+009 0 - - -;
#X obj 254 517 *~;
#X floatatom 269 496 5 0 1 0 - - -;
#X obj 204 216 expr 44100/$f1;
#X floatatom 288 255 5 0 0 0 - - -;
#X obj 319 318 * 1;
#X obj 330 288 bng 15 250 50 0 empty empty empty 17 7 0 10 -262144
-1 -1;
#X obj 253 446 tabread4~ soundData;
#X obj 213 103 loadbang;
#X obj 253 552 outlet~;
#X obj 186 49 inlet;
#X obj 243 49 inlet;
#X msg 213 133 read -resize PublisherSongs/Capcom.wav soundData;
#X connect 0 0 1 0;
#X connect 1 0 10 0;
#X connect 2 0 3 0;
#X connect 3 0 1 1;
#X connect 3 0 6 0;
#X connect 4 0 12 0;
#X connect 5 0 4 1;
#X connect 6 0 7 0;
#X connect 7 0 8 0;
#X connect 8 0 0 0;
#X connect 9 0 8 0;
#X connect 10 0 4 0;
#X connect 11 0 15 0;
#X connect 15 0 2 0;
#X restore 624 408 pd Capcom;
#N canvas 247 319 740 536 EA 0;
#X obj 216 338 phasor~;
#X obj 243 401 *~;
#X obj 212 161 soundfiler;
#X floatatom 212 187 15 0 1e+009 0 - - -;
#X obj 254 517 *~;
#X floatatom 269 496 5 0 1 0 - - -;
#X obj 204 216 expr 44100/$f1;
#X floatatom 288 255 5 0 0 0 - - -;
#X obj 319 318 * 1;
#X obj 330 288 bng 15 250 50 0 empty empty empty 17 7 0 10 -262144
-1 -1;
#X obj 253 446 tabread4~ soundData;
#X obj 213 103 loadbang;
#X obj 253 552 outlet~;
#X obj 186 49 inlet;
#X obj 243 49 inlet;
#X msg 213 133 read -resize PublisherSongs/EA.wav soundData;
#X connect 0 0 1 0;
#X connect 1 0 10 0;
#X connect 2 0 3 0;
#X connect 3 0 1 1;
#X connect 3 0 6 0;
#X connect 4 0 12 0;
#X connect 5 0 4 1;
#X connect 6 0 7 0;
#X connect 7 0 8 0;
#X connect 8 0 0 0;
#X connect 9 0 8 0;
#X connect 10 0 4 0;
#X connect 11 0 15 0;
#X connect 15 0 2 0;
#X restore 822 418 pd EA;
#N canvas 247 319 740 536 Konami 0;
#X obj 216 338 phasor~;
#X obj 243 401 *~;
#X obj 212 161 soundfiler;
#X floatatom 212 187 15 0 1e+009 0 - - -;
#X obj 254 517 *~;
#X floatatom 269 496 5 0 1 0 - - -;
#X obj 204 216 expr 44100/$f1;
#X floatatom 288 255 5 0 0 0 - - -;
#X obj 319 318 * 1;
#X obj 330 288 bng 15 250 50 0 empty empty empty 17 7 0 10 -262144
-1 -1;
#X obj 253 446 tabread4~ soundData;
#X obj 213 103 loadbang;
#X obj 253 552 outlet~;
#X obj 186 49 inlet;
#X obj 243 49 inlet;
#X msg 213 133 read -resize PublisherSongs/Konami.wav soundData;
#X connect 0 0 1 0;
#X connect 1 0 10 0;
#X connect 2 0 3 0;
#X connect 3 0 1 1;
#X connect 3 0 6 0;
#X connect 4 0 12 0;
#X connect 5 0 4 1;
#X connect 6 0 7 0;
#X connect 7 0 8 0;
#X connect 8 0 0 0;
#X connect 9 0 8 0;
#X connect 10 0 4 0;
#X connect 11 0 15 0;
#X connect 15 0 2 0;
#X restore 1022 432 pd Konami;
#N canvas 247 319 740 536 Microsoft 0;
#X obj 216 338 phasor~;
#X obj 243 401 *~;
#X obj 212 161 soundfiler;
#X floatatom 212 187 15 0 1e+009 0 - - -;
#X obj 254 517 *~;
#X floatatom 269 496 5 0 1 0 - - -;
#X obj 204 216 expr 44100/$f1;
#X floatatom 288 255 5 0 0 0 - - -;
#X obj 319 318 * 1;
#X obj 330 288 bng 15 250 50 0 empty empty empty 17 7 0 10 -262144
-1 -1;
#X obj 253 446 tabread4~ soundData;
#X obj 213 103 loadbang;
#X obj 253 552 outlet~;
#X obj 186 49 inlet;
#X obj 243 49 inlet;
#X msg 213 133 read -resize PublisherSongs/Microsoft.wav soundData
;
#X connect 0 0 1 0;
#X connect 1 0 10 0;
#X connect 2 0 3 0;
#X connect 3 0 1 1;
#X connect 3 0 6 0;
#X connect 4 0 12 0;
#X connect 5 0 4 1;
#X connect 6 0 7 0;
#X connect 7 0 8 0;
#X connect 8 0 0 0;
#X connect 9 0 8 0;
#X connect 10 0 4 0;
#X connect 11 0 15 0;
#X connect 15 0 2 0;
#X restore 1104 432 pd Microsoft;
#N canvas 247 319 740 536 NamcoBandai 0;
#X obj 216 338 phasor~;
#X obj 243 401 *~;
#X obj 212 161 soundfiler;
#X floatatom 212 187 15 0 1e+009 0 - - -;
#X obj 254 517 *~;
#X floatatom 269 496 5 0 1 0 - - -;
#X obj 204 216 expr 44100/$f1;
#X floatatom 288 255 5 0 0 0 - - -;
#X obj 319 318 * 1;
#X obj 330 288 bng 15 250 50 0 empty empty empty 17 7 0 10 -262144
-1 -1;
#X obj 253 446 tabread4~ soundData;
#X obj 213 103 loadbang;
#X obj 253 552 outlet~;
#X obj 186 49 inlet;
#X obj 243 49 inlet;
#X msg 213 133 read -resize PublisherSongs/NamcoBandai.wav soundData
;
#X connect 0 0 1 0;
#X connect 1 0 10 0;
#X connect 2 0 3 0;
#X connect 3 0 1 1;
#X connect 3 0 6 0;
#X connect 4 0 12 0;
#X connect 5 0 4 1;
#X connect 6 0 7 0;
#X connect 7 0 8 0;
#X connect 8 0 0 0;
#X connect 9 0 8 0;
#X connect 10 0 4 0;
#X connect 11 0 15 0;
#X connect 15 0 2 0;
#X restore 97 694 pd NamcoBandai;
#N canvas 247 319 740 536 Nintendo 0;
#X obj 216 338 phasor~;
#X obj 243 401 *~;
#X obj 212 161 soundfiler;
#X floatatom 212 187 15 0 1e+009 0 - - -;
#X obj 254 517 *~;
#X floatatom 269 496 5 0 1 0 - - -;
#X obj 204 216 expr 44100/$f1;
#X floatatom 288 255 5 0 0 0 - - -;
#X obj 319 318 * 1;
#X obj 330 288 bng 15 250 50 0 empty empty empty 17 7 0 10 -262144
-1 -1;
#X obj 253 446 tabread4~ soundData;
#X obj 213 103 loadbang;
#X obj 253 552 outlet~;
#X obj 186 49 inlet;
#X obj 243 49 inlet;
#X msg 213 133 read -resize PublisherSongs/Nintendo.wav soundData;
#X connect 0 0 1 0;
#X connect 1 0 10 0;
#X connect 2 0 3 0;
#X connect 3 0 1 1;
#X connect 3 0 6 0;
#X connect 4 0 12 0;
#X connect 5 0 4 1;
#X connect 6 0 7 0;
#X connect 7 0 8 0;
#X connect 8 0 0 0;
#X connect 9 0 8 0;
#X connect 10 0 4 0;
#X connect 11 0 15 0;
#X connect 15 0 2 0;
#X restore 216 694 pd Nintendo;
#N canvas 247 319 740 536 Sega 0;
#X obj 216 338 phasor~;
#X obj 243 401 *~;
#X obj 212 161 soundfiler;
#X floatatom 212 187 15 0 1e+009 0 - - -;
#X obj 254 517 *~;
#X floatatom 269 496 5 0 1 0 - - -;
#X obj 204 216 expr 44100/$f1;
#X floatatom 288 255 5 0 0 0 - - -;
#X obj 319 318 * 1;
#X obj 330 288 bng 15 250 50 0 empty empty empty 17 7 0 10 -262144
-1 -1;
#X obj 253 446 tabread4~ soundData;
#X obj 213 103 loadbang;
#X obj 253 552 outlet~;
#X obj 186 49 inlet;
#X obj 243 49 inlet;
#X msg 213 133 read -resize PublisherSongs/Sega.wav soundData;
#X connect 0 0 1 0;
#X connect 1 0 10 0;
#X connect 2 0 3 0;
#X connect 3 0 1 1;
#X connect 3 0 6 0;
#X connect 4 0 12 0;
#X connect 5 0 4 1;
#X connect 6 0 7 0;
#X connect 7 0 8 0;
#X connect 8 0 0 0;
#X connect 9 0 8 0;
#X connect 10 0 4 0;
#X connect 11 0 15 0;
#X connect 15 0 2 0;
#X restore 324 698 pd Sega;
#N canvas 247 319 740 536 Sony 0;
#X obj 216 338 phasor~;
#X obj 243 401 *~;
#X obj 212 161 soundfiler;
#X floatatom 212 187 15 0 1e+009 0 - - -;
#X obj 254 517 *~;
#X floatatom 269 496 5 0 1 0 - - -;
#X obj 204 216 expr 44100/$f1;
#X floatatom 288 255 5 0 0 0 - - -;
#X obj 319 318 * 1;
#X obj 330 288 bng 15 250 50 0 empty empty empty 17 7 0 10 -262144
-1 -1;
#X obj 253 446 tabread4~ soundData;
#X obj 213 103 loadbang;
#X obj 253 552 outlet~;
#X obj 186 49 inlet;
#X obj 243 49 inlet;
#X msg 213 133 read -resize PublisherSongs/Sony.wav soundData;
#X connect 0 0 1 0;
#X connect 1 0 10 0;
#X connect 2 0 3 0;
#X connect 3 0 1 1;
#X connect 3 0 6 0;
#X connect 4 0 12 0;
#X connect 5 0 4 1;
#X connect 6 0 7 0;
#X connect 7 0 8 0;
#X connect 8 0 0 0;
#X connect 9 0 8 0;
#X connect 10 0 4 0;
#X connect 11 0 15 0;
#X connect 15 0 2 0;
#X restore 404 698 pd Sony;
#N canvas 247 319 740 536 SquareEnix 0;
#X obj 216 338 phasor~;
#X obj 243 401 *~;
#X obj 212 161 soundfiler;
#X floatatom 212 187 15 0 1e+009 0 - - -;
#X obj 254 517 *~;
#X floatatom 269 496 5 0 1 0 - - -;
#X obj 204 216 expr 44100/$f1;
#X floatatom 288 255 5 0 0 0 - - -;
#X obj 319 318 * 1;
#X obj 330 288 bng 15 250 50 0 empty empty empty 17 7 0 10 -262144
-1 -1;
#X obj 253 446 tabread4~ soundData;
#X obj 213 103 loadbang;
#X obj 253 552 outlet~;
#X obj 186 49 inlet;
#X obj 243 49 inlet;
#X msg 213 133 read -resize PublisherSongs/SquareEnix.wav soundData
;
#X connect 0 0 1 0;
#X connect 1 0 10 0;
#X connect 2 0 3 0;
#X connect 3 0 1 1;
#X connect 3 0 6 0;
#X connect 4 0 12 0;
#X connect 5 0 4 1;
#X connect 6 0 7 0;
#X connect 7 0 8 0;
#X connect 8 0 0 0;
#X connect 9 0 8 0;
#X connect 10 0 4 0;
#X connect 11 0 15 0;
#X connect 15 0 2 0;
#X restore 483 699 pd SquareEnix;
#N canvas 247 319 740 536 TakeTwo 0;
#X obj 216 338 phasor~;
#X obj 243 401 *~;
#X obj 212 161 soundfiler;
#X floatatom 212 187 15 0 1e+009 0 - - -;
#X obj 254 517 *~;
#X floatatom 269 496 5 0 1 0 - - -;
#X obj 204 216 expr 44100/$f1;
#X floatatom 288 255 5 0 0 0 - - -;
#X obj 319 318 * 1;
#X obj 330 288 bng 15 250 50 0 empty empty empty 17 7 0 10 -262144
-1 -1;
#X obj 253 446 tabread4~ soundData;
#X obj 213 103 loadbang;
#X obj 253 552 outlet~;
#X obj 186 49 inlet;
#X obj 243 49 inlet;
#X msg 213 133 read -resize PublisherSongs/TakeTwo.wav soundData;
#X connect 0 0 1 0;
#X connect 1 0 10 0;
#X connect 2 0 3 0;
#X connect 3 0 1 1;
#X connect 3 0 6 0;
#X connect 4 0 12 0;
#X connect 5 0 4 1;
#X connect 6 0 7 0;
#X connect 7 0 8 0;
#X connect 8 0 0 0;
#X connect 9 0 8 0;
#X connect 10 0 4 0;
#X connect 11 0 15 0;
#X connect 15 0 2 0;
#X restore 595 699 pd TakeTwo;
#N canvas 706 304 740 536 Ubisoft 0;
#X obj 216 338 phasor~;
#X obj 243 401 *~;
#X obj 212 161 soundfiler;
#X floatatom 212 187 15 0 1e+009 0 - - -;
#X obj 254 517 *~;
#X floatatom 269 496 5 0 1 0 - - -;
#X obj 204 216 expr 44100/$f1;
#X floatatom 288 255 5 0 0 0 - - -;
#X obj 319 318 * 1;
#X obj 330 288 bng 15 250 50 0 empty empty empty 17 7 0 10 -262144
-1 -1;
#X obj 253 446 tabread4~ soundData;
#X obj 213 103 loadbang;
#X obj 253 552 outlet~;
#X msg 213 133 read -resize PublisherSongs/Ubisoft.wav soundData;
#X obj 362 221 inlet;
#X obj 269 470 inlet;
#X floatatom 362 256 5 0 0 0 - - -;
#X connect 0 0 1 0;
#X connect 1 0 10 0;
#X connect 2 0 3 0;
#X connect 3 0 1 1;
#X connect 3 0 6 0;
#X connect 4 0 12 0;
#X connect 5 0 4 1;
#X connect 6 0 7 0;
#X connect 7 0 8 0;
#X connect 8 0 0 0;
#X connect 9 0 8 0;
#X connect 10 0 4 0;
#X connect 11 0 13 0;
#X connect 13 0 2 0;
#X connect 14 0 16 0;
#X connect 15 0 5 0;
#X connect 16 0 9 0;
#X connect 16 0 8 1;
#X restore 682 698 pd Ubisoft;
#X obj 78 398 hsl 128 15 0.5 1.5 0 0 empty empty playback_speed -2
-8 0 10 -262144 -1 -1 0 1;
#X obj 40 295 vsl 15 128 0 0.5 0 0 empty empty volume 0 -9 0 10 -262144
-1 -1 0 1;
#X obj 243 397 hsl 128 15 0.5 1.5 0 0 empty empty playback_speed -2
-8 0 10 -262144 -1 -1 0 1;
#X obj 219 296 vsl 15 128 0 0.5 0 0 empty empty volume 0 -9 0 10 -262144
-1 -1 0 1;
#X obj 416 391 hsl 128 15 0.5 1.5 0 0 empty empty playback_speed -2
-8 0 10 -262144 -1 -1 0 1;
#X obj 392 290 vsl 15 128 0 0.5 0 0 empty empty volume 0 -9 0 10 -262144
-1 -1 0 1;
#X obj 627 377 hsl 128 15 0.5 1.5 0 0 empty empty playback_speed -2
-8 0 10 -262144 -1 -1 0 1;
#X obj 600 277 vsl 15 128 0 0.5 0 0 empty empty volume 0 -9 0 10 -262144
-1 -1 0 1;
#X obj 75 537 dac~;
#X obj 76 506 *~;
#X msg 119 487 0;
#X msg 158 488 1;
#X obj 119 461 loadbang;
#X obj 240 536 dac~;
#X obj 241 505 *~;
#X msg 284 486 0;
#X msg 323 487 1;
#X obj 284 460 loadbang;
#X obj 411 539 dac~;
#X obj 412 508 *~;
#X msg 455 489 0;
#X msg 494 490 1;
#X obj 455 463 loadbang;
#X obj 620 519 dac~;
#X obj 621 488 *~;
#X msg 664 469 0;
#X msg 703 470 1;
#X obj 664 443 loadbang;
#X obj 198 209 bng 15 250 50 0 empty empty empty 17 7 0 10 -262144
-1 -1;
#X connect 0 0 1 0;
#X connect 2 0 34 0;
#X connect 3 0 29 0;
#X connect 8 0 39 0;
#X connect 9 0 44 0;
#X connect 20 0 3 0;
#X connect 21 0 3 1;
#X connect 22 0 2 0;
#X connect 23 0 2 1;
#X connect 24 0 8 0;
#X connect 25 0 8 1;
#X connect 26 0 9 0;
#X connect 27 0 9 1;
#X connect 29 0 28 0;
#X connect 29 0 28 1;
#X connect 30 0 29 1;
#X connect 31 0 29 1;
#X connect 32 0 30 0;
#X connect 34 0 33 0;
#X connect 34 0 33 1;
#X connect 35 0 34 1;
#X connect 36 0 34 1;
#X connect 37 0 35 0;
#X connect 39 0 38 0;
#X connect 39 0 38 1;
#X connect 40 0 39 1;
#X connect 41 0 39 1;
#X connect 42 0 40 0;
#X connect 44 0 43 0;
#X connect 44 0 43 1;
#X connect 45 0 44 1;
#X connect 46 0 44 1;
#X connect 47 0 45 0;
